<?xml version="1.0" encoding="utf-8"?>
<!-- Generator: Adobe Illustrator 16.0.4, SVG Export Plug-In . SVG Version: 6.00 Build 0)  -->
<!DOCTYPE svg PUBLIC "-//W3C//DTD SVG 1.1//EN" "http://www.w3.org/Graphics/SVG/1.1/DTD/svg11.dtd">
<svg version="1.1" id="financial_docsol" xmlns="http://www.w3.org/2000/svg" xmlns:xlink="http://www.w3.org/1999/xlink" x="0px"
	 y="0px" width="333.659px" height="41.436px" viewBox="0 0 333.659 41.436" enable-background="new 0 0 333.659 41.436"
	 xml:space="preserve">
<g>
	<g>
		<path d="M21.496,4.022h11.852v1.961H23.66v7.784h9.365v1.961H23.66v7.988h9.687v1.962H21.496V4.022z"/>
		<path d="M40.774,4.022h5.502c2.898,0,4.332,0.352,5.325,0.819c2.43,1.143,3.863,3.512,3.863,6.178c0,3.129-2.252,6.32-6.438,6.583
			l6.117,8.078h-2.721l-7.346-9.805c2.75,0,3.688-0.029,4.654-0.32c2.371-0.673,3.57-2.664,3.57-4.595
			c0-1.698-0.965-3.452-2.37-4.155c-1.287-0.674-2.399-0.819-4.214-0.819H42.94v19.693h-2.166V4.022z"/>
		<path d="M62.31,4.022h2.165v21.655H62.31V4.022z"/>
		<path d="M70.531,4.022h2.4l7.637,18.964l7.666-18.964h2.341l-8.983,21.655h-2.138L70.531,4.022z"/>
		<path d="M101.053,4.022h2.429l9.307,21.655h-2.371l-3.13-7.286H97.22l-3.16,7.286h-2.254L101.053,4.022z M98.038,16.429h8.401
			l-4.157-9.949L98.038,16.429z"/>
		<path d="M118.898,4.022h2.926L133.91,21.99h0.059V4.022h2.167v21.655h-2.167L121.123,6.626h-0.059v19.051h-2.166V4.022z"/>
		<g>
			<path d="M143.914,4.022h11.823v4.857h-6.527v3.687h6.293v4.858h-6.293v8.253h-5.296V4.022z"/>
			<path d="M162.317,4.022h5.531v21.655h-5.531V4.022z"/>
			<path d="M175.364,4.022h4.769l8.374,13.609l0.059-0.059l-0.234-13.55h5.297v21.655h-4.8l-8.256-13.17l-0.057,0.028l0.146,13.142
				h-5.297V4.022H175.364z"/>
			<path d="M206.554,22.546l-1.141,3.131h-5.94l8.69-21.657h4.363l8.602,21.657h-5.999l-1.054-3.131H206.554z M208.077,18.157h4.537
				l-2.225-7.405h-0.029h-0.057L208.077,18.157z"/>
			<path d="M226.947,4.022h4.769l8.37,13.609l0.057-0.059l-0.232-13.55h5.298v21.655h-4.8l-8.254-13.17l-0.059,0.028l0.147,13.142
				h-5.299V4.022H226.947z"/>
			<path d="M274.23,17.571c-1.258,5.121-5.705,8.518-10.943,8.518c-6.787,0-11.413-5.415-11.413-11.268
				c0-5.532,4.273-11.208,11.354-11.208c6.79,0,10.418,5.238,11.002,8.631h-5.792c-0.614-1.609-2.256-3.774-5.238-3.774
				c-3.718,0-5.799,3.247-5.799,6.322c0,3.276,2.226,6.436,5.826,6.436c3.453,0,4.859-2.895,5.21-3.656H274.23z"/>
			<path d="M280.691,4.022h5.532v21.655h-5.532V4.022z"/>
			<path d="M299.125,22.546l-1.141,3.131h-5.94l8.689-21.657h4.362l8.604,21.657h-6l-1.054-3.131H299.125z M300.647,18.157h4.534
				l-2.222-7.405h-0.031h-0.059L300.647,18.157z"/>
			<path d="M319.662,4.022h5.532V20.82h6.407v4.857h-11.94L319.662,4.022L319.662,4.022z"/>
		</g>
		<path d="M12.34,5.28c-1.2-0.789-2.604-1.258-5.591-1.258H0.722v21.655h2.165v-8.184H2.883v-2.86h0.004v-8.65h3.13
			c2.314,0,3.103,0,4.331,0.555c1.699,0.792,2.518,2.313,2.518,3.953c0,1.637-0.819,3.16-2.518,3.949
			c-1.228,0.558-2.019,0.558-4.331,0.558H2.314v1.961h4.437c2.985,0,4.39-0.47,5.589-1.258c1.609-1.083,2.692-2.927,2.692-5.209
			C15.031,8.208,13.95,6.363,12.34,5.28z"/>
	</g>
	<g>
		<path d="M192.257,31.379h2.732c1.754,0,2.803,0.671,3.441,1.549c0.602,0.845,0.863,1.871,0.863,2.689
			c0,1.136-0.433,2.358-1.059,2.971c-0.97,0.956-2.108,1.22-3.292,1.22h-2.687V31.379L192.257,31.379z M193.487,38.68h1.47
			c1.48,0,3.108-0.74,3.108-3.064c0-1.276-0.786-3.108-3.088-3.108h-1.49V38.68L193.487,38.68z"/>
		<path d="M205.52,39.968c-2.516,0-4.384-2.062-4.384-4.376c0-2.289,1.811-4.373,4.384-4.373c2.506,0,4.384,1.992,4.384,4.396
			C209.904,37.916,208.026,39.968,205.52,39.968z M205.52,32.349c-2.176,0-3.153,1.903-3.153,3.243c0,1.378,0.99,3.246,3.153,3.246
			c2.177,0,3.154-1.891,3.154-3.213C208.674,34.135,207.616,32.349,205.52,32.349z"/>
		<path d="M218.352,33.531c-0.252-0.283-1.002-1.182-2.37-1.182c-1.753,0-3.13,1.444-3.13,3.223c0,1.812,1.456,3.269,3.108,3.269
			c0.888,0,1.719-0.434,2.302-1.117h1.516c-0.937,1.653-2.519,2.245-3.829,2.245c-2.39,0-4.326-2.019-4.326-4.406
			c0-2.463,1.984-4.341,4.338-4.341c0.637,0,1.662,0.161,2.574,0.819c0.763,0.549,1.082,1.115,1.299,1.493h-1.481V33.531z"/>
		<path d="M227.426,37.087c0,0.954-0.319,1.651-0.855,2.161c-0.522,0.432-1.196,0.72-1.97,0.72c-0.775,0-1.446-0.288-1.97-0.72
			c-0.535-0.513-0.854-1.207-0.854-2.161v-5.705h1.229v5.67c0,1.562,1.137,1.788,1.595,1.788c0.454,0,1.595-0.227,1.595-1.788v-5.67
			h1.23V37.087L227.426,37.087z"/>
		<path d="M237.683,39.808v-7.117h-0.032l-2.838,7.117h-0.74l-2.848-7.117h-0.022v7.117h-1.228v-8.426h1.935l2.528,6.453
			l2.539-6.453h1.937v8.426H237.683z"/>
		<path d="M241.345,39.808v-8.426h4.544v1.125h-3.311v2.482h3.311v1.126h-3.311v2.564h3.311v1.125h-4.544V39.808z"/>
		<path d="M253.654,39.808l-4.165-6.512h-0.024v6.512h-1.229v-8.426h1.341l4.102,6.412h0.024v-6.412h1.229v8.426H253.654z"/>
		<path d="M258.333,39.808v-7.301h-1.617v-1.125h4.463v1.125h-1.617v7.301H258.333z"/>
		<path d="M267.566,37.312c0,0.286,0.125,1.526,1.367,1.526c0.773,0,1.355-0.536,1.355-1.424c0-0.944-0.776-1.151-1.355-1.378
			c-1.13-0.432-1.403-0.569-1.788-0.944c-0.389-0.378-0.572-0.992-0.572-1.585c0-0.979,0.766-2.288,2.36-2.288
			c1.398,0,2.414,0.924,2.414,2.348h-1.229c0-0.937-0.683-1.223-1.185-1.223c-0.73,0-1.129,0.663-1.129,1.153
			c0,0.807,0.766,1.021,1.129,1.161c1.059,0.397,2.587,0.729,2.587,2.756c0,1.47-1.036,2.549-2.587,2.549
			c-1.164,0-2.596-0.775-2.596-2.651H267.566L267.566,37.312z"/>
		<path d="M277.481,39.968c-2.516,0-4.384-2.062-4.384-4.376c0-2.289,1.813-4.373,4.384-4.373c2.509,0,4.387,1.992,4.387,4.396
			C281.868,37.916,279.99,39.968,277.481,39.968z M277.481,32.349c-2.174,0-3.153,1.903-3.153,3.243
			c0,1.378,0.992,3.246,3.153,3.246c2.177,0,3.156-1.891,3.156-3.213C280.637,34.135,279.579,32.349,277.481,32.349z"/>
		<path d="M284.049,39.808v-8.426h1.229v7.3h2.926v1.126H284.049z"/>
		<path d="M295.539,37.087c0,0.954-0.318,1.651-0.854,2.161c-0.522,0.432-1.196,0.72-1.97,0.72c-0.775,0-1.446-0.288-1.97-0.72
			c-0.536-0.513-0.854-1.207-0.854-2.161v-5.705h1.229v5.67c0,1.562,1.141,1.788,1.595,1.788c0.457,0,1.595-0.227,1.595-1.788v-5.67
			h1.229V37.087L295.539,37.087z"/>
		<path d="M298.93,39.808v-7.301h-1.618v-1.125h4.466v1.125h-1.618v7.301H298.93z"/>
		<path d="M303.574,39.808v-8.426h1.23v8.426H303.574z"/>
		<path d="M311.316,39.968c-2.517,0-4.384-2.062-4.384-4.376c0-2.289,1.812-4.373,4.384-4.373c2.506,0,4.385,1.992,4.385,4.396
			C315.702,37.916,313.822,39.968,311.316,39.968z M311.316,32.349c-2.174,0-3.154,1.903-3.154,3.243
			c0,1.378,0.993,3.246,3.154,3.246c2.177,0,3.156-1.891,3.156-3.213C314.472,34.135,313.414,32.349,311.316,32.349z"/>
		<path d="M323.26,39.808l-4.17-6.512h-0.022v6.512h-1.23v-8.426h1.345l4.101,6.412h0.024v-6.412h1.229v8.426H323.26z"/>
		<path d="M327.676,37.312c0,0.286,0.125,1.526,1.365,1.526c0.776,0,1.355-0.536,1.355-1.424c0-0.944-0.773-1.151-1.355-1.378
			c-1.128-0.432-1.4-0.569-1.788-0.944c-0.386-0.378-0.569-0.992-0.569-1.585c0-0.979,0.763-2.288,2.357-2.288
			c1.401,0,2.414,0.924,2.414,2.348h-1.229c0-0.937-0.683-1.223-1.183-1.223c-0.729,0-1.128,0.663-1.128,1.153
			c0,0.807,0.763,1.021,1.128,1.161c1.059,0.397,2.585,0.729,2.585,2.756c0,1.47-1.036,2.549-2.585,2.549
			c-1.162,0-2.598-0.775-2.598-2.651H327.676L327.676,37.312z"/>
	</g>
</g>
</svg>
