<?xml version="1.0" encoding="utf-8"?>
<!-- Generator: Adobe Illustrator 16.0.4, SVG Export Plug-In . SVG Version: 6.00 Build 0)  -->
<!DOCTYPE svg PUBLIC "-//W3C//DTD SVG 1.1//EN" "http://www.w3.org/Graphics/SVG/1.1/DTD/svg11.dtd">
<svg version="1.1" id="solutions" xmlns="http://www.w3.org/2000/svg" xmlns:xlink="http://www.w3.org/1999/xlink" x="0px" y="0px"
	 width="334.909px" height="41.436px" viewBox="0 0 334.909 41.436" enable-background="new 0 0 334.909 41.436"
	 xml:space="preserve">
<g>
	<path d="M21.298,3.935h11.833v1.96h-9.673v7.773h9.351v1.958h-9.351v7.978h9.673v1.958H21.298V3.935z"/>
	<path d="M40.551,3.935h5.495c2.892,0,4.323,0.354,5.317,0.819c2.425,1.141,3.857,3.507,3.857,6.166c0,3.128-2.25,6.312-6.43,6.575
		l6.108,8.067H52.18l-7.335-9.791c2.748,0,3.683-0.029,4.647-0.321c2.367-0.672,3.564-2.661,3.564-4.59
		c0-1.692-0.964-3.447-2.366-4.148c-1.287-0.672-2.396-0.819-4.208-0.819h-3.769v19.668h-2.162V3.935z"/>
	<path d="M62.052,3.935h2.162v21.627h-2.162V3.935z"/>
	<path d="M70.261,3.935h2.396l7.627,18.937l7.654-18.937h2.337l-8.969,21.628h-2.134L70.261,3.935z"/>
	<path d="M100.738,3.935h2.425l9.293,21.627h-2.367l-3.125-7.278H96.91l-3.156,7.278h-2.249L100.738,3.935z M97.729,16.327h8.387
		l-4.151-9.936L97.729,16.327z"/>
	<path d="M118.557,3.935h2.921l12.069,17.946h0.058V3.935h2.163v21.627h-2.163L120.779,6.538h-0.059v19.025h-2.163L118.557,3.935
		L118.557,3.935z"/>
	<path d="M152.009,10.249c-0.118-0.731-0.292-2.104-1.987-2.104c-0.963,0-1.899,0.672-1.899,1.695c0,1.284,0.584,1.549,4.471,3.302
		c4.032,1.811,5.055,3.682,5.055,6.195c0,3.157-1.811,6.636-7.538,6.636c-6.252,0-7.802-4.092-7.802-6.871V18.4h5.495
		c0,2.514,1.548,2.953,2.249,2.953c1.315,0,2.104-1.081,2.104-2.074c0-1.433-0.906-1.783-4.236-3.186
		c-1.519-0.614-5.291-2.133-5.291-6.194c0-4.061,3.946-6.371,7.569-6.371c2.133,0,4.442,0.788,5.845,2.456
		c1.288,1.576,1.375,3.039,1.433,4.265H152.009z"/>
	<path d="M174.329,3.528c6.662,0,11.422,5.201,11.422,11.221c0,6.018-4.729,11.224-11.451,11.224
		c-6.807,0-11.367-5.408-11.367-10.962c0-1.43,0.205-3.038,0.85-4.617C164.918,7.59,168.28,3.528,174.329,3.528z M174.416,21.12
		c3.917,0,5.814-3.564,5.814-6.34c0-2.805-1.899-6.402-5.874-6.402c-3.828,0-5.899,3.274-5.899,6.313
		C168.458,18.023,170.705,21.12,174.416,21.12z"/>
	<path d="M192.466,3.935h5.526v16.775h6.396v4.852h-11.923V3.935L192.466,3.935z"/>
	<path d="M215.606,3.935v13.064c0,1.46,0.089,4.121,2.808,4.121c2.746,0,2.746-2.396,2.746-4.121V3.935h5.523v13.064
		c0,3.625-0.789,5.231-2.163,6.636c-1.402,1.432-3.36,2.338-6.048,2.338c-1.579,0-4.441-0.382-6.227-2.311
		c-1.782-1.957-2.163-3.478-2.163-6.663V3.935H215.606z"/>
	<path d="M236.73,8.788h-4.267V3.935h14.027v4.853h-4.236v16.776h-5.524V8.788z"/>
	<path d="M252.298,3.935h5.524v21.627h-5.524V3.935z"/>
	<path d="M275.789,3.528c6.664,0,11.426,5.201,11.426,11.221c0,6.018-4.73,11.224-11.452,11.224
		c-6.811,0-11.368-5.408-11.368-10.962c0-1.43,0.202-3.038,0.848-4.617C266.38,7.59,269.741,3.528,275.789,3.528z M275.877,21.12
		c3.914,0,5.814-3.564,5.814-6.34c0-2.805-1.9-6.402-5.875-6.402c-3.825,0-5.898,3.274-5.898,6.313
		C269.918,18.023,272.165,21.12,275.877,21.12z"/>
	<path d="M293.783,3.935h4.764l8.356,13.591l0.059-0.06l-0.233-13.532h5.288v21.627h-4.79l-8.241-13.152l-0.06,0.028l0.147,13.123
		h-5.293V3.935H293.783z"/>
	<path d="M328.023,10.249c-0.116-0.731-0.29-2.104-1.988-2.104c-0.964,0-1.897,0.672-1.897,1.695c0,1.284,0.582,1.549,4.471,3.302
		c4.033,1.811,5.055,3.682,5.055,6.195c0,3.157-1.811,6.636-7.54,6.636c-6.253,0-7.8-4.092-7.8-6.871V18.4h5.493
		c0,2.514,1.549,2.953,2.248,2.953c1.317,0,2.103-1.081,2.103-2.074c0-1.433-0.904-1.783-4.235-3.186
		c-1.521-0.614-5.289-2.133-5.289-6.194c0-4.061,3.945-6.371,7.567-6.371c2.133,0,4.442,0.788,5.846,2.456
		c1.287,1.576,1.374,3.039,1.434,4.265H328.023z"/>
	<path d="M12.155,5.194c-1.196-0.79-2.599-1.259-5.58-1.259h-6.02v21.627h2.162v-8.71l0,0v-1.957l0,0v-9h3.126
		c2.31,0,3.099,0,4.324,0.554c1.696,0.789,2.514,2.31,2.514,3.945c0,1.636-0.818,3.156-2.514,3.945
		c-1.226,0.554-2.014,0.554-4.324,0.554H2.519v1.957h4.055c2.981,0,4.384-0.467,5.582-1.255c1.608-1.081,2.689-2.923,2.689-5.202
		C14.845,8.115,13.765,6.276,12.155,5.194z"/>
</g>
</svg>
