<?xml version="1.0" encoding="utf-8"?>
<!-- Generator: Adobe Illustrator 16.0.4, SVG Export Plug-In . SVG Version: 6.00 Build 0)  -->
<!DOCTYPE svg PUBLIC "-//W3C//DTD SVG 1.1//EN" "http://www.w3.org/Graphics/SVG/1.1/DTD/svg11.dtd">
<svg version="1.1" id="Layer_2" xmlns="http://www.w3.org/2000/svg" xmlns:xlink="http://www.w3.org/1999/xlink" x="0px" y="0px"
	 width="363.817px" height="41.436px" viewBox="0 0 363.817 41.436" enable-background="new 0 0 363.817 41.436"
	 xml:space="preserve">
<g>
	<g>
		<path d="M2.131,3.944L8.985,22.4l6.883-18.457H18L9.837,25.601H8.163L0,3.944H2.131z"/>
		<path d="M23.387,25.601V3.944h2.132v21.657H23.387z"/>
		<path d="M35.204,25.601h-2.102V3.944h5.818c2.041,0,3.685,0.183,5.208,1.248c1.736,1.22,2.802,3.381,2.802,5.636
			c0,3.289-2.193,6.092-5.239,6.305l5.239,8.468h-2.528l-6.427-10.449h2.04c2.803,0,4.63-1.828,4.63-4.292
			c0-1.524-0.518-2.773-1.553-3.717c-1.188-1.064-2.711-1.064-4.751-1.064h-3.137V25.601z"/>
		<path d="M56.703,25.601V6.077h-4.326V3.944H63.16v2.133h-4.325v19.523H56.703z"/>
		<path d="M71.015,3.944v13.249c0,0.152,0,0.305,0,0.458c0,1.461,0.031,2.681,0.548,3.775c0.761,1.615,2.346,2.622,4.234,2.622
			c3.381,0,4.812-2.316,4.812-6.855V3.944h2.102v13.767c0,5.574-2.193,8.345-6.763,8.345c-4.934,0-7.065-2.709-7.065-8.345V3.944
			H71.015z"/>
		<path d="M87.519,25.601l8.406-21.657h2.559l8.375,21.657h-2.283l-2.589-6.792h-9.626l-2.588,6.792H87.519z M97.144,5.985
			l-4.051,10.873h8.163L97.144,5.985z"/>
		<path d="M112.338,25.601V3.944h2.131v19.555h7.614v2.102H112.338z"/>
		<path d="M128.447,3.944h7.4c4.418,0,6.702,1.918,6.702,5.33c0,2.255-0.822,3.686-2.71,4.63c2.497,0.76,3.716,2.375,3.716,4.995
			c0,2.041-0.731,3.84-2.101,5.087c-1.585,1.433-3.563,1.615-6.427,1.615h-6.58V3.944z M134.844,12.35
			c1.979,0,2.894-0.427,2.894-1.828c0-1.432-0.792-2.041-2.438-2.041h-1.736v3.868H134.844z M135.362,21.062
			c2.009,0,2.954-0.487,2.954-2.253c0-1.829-0.945-2.316-3.046-2.316h-1.706v4.569H135.362z"/>
		<path d="M152.597,6.715c2.132-2.101,4.812-3.167,7.888-3.167c2.894,0,5.634,1.126,7.737,3.199
			c2.193,2.161,3.351,4.935,3.351,7.889c0,3.105-1.098,5.878-3.138,7.979c-2.101,2.194-4.964,3.381-7.98,3.381
			c-3.198,0-5.938-1.157-8.072-3.41c-2.041-2.164-3.076-4.845-3.076-8.041C149.307,11.559,150.464,8.818,152.597,6.715z
			 M160.454,20.634c3.107,0,5.635-2.497,5.635-6.03c0-3.168-2.528-5.696-5.575-5.696c-3.229,0-5.756,2.528-5.756,5.696
			C154.758,18.016,157.47,20.634,160.454,20.634z"/>
		<path d="M180.764,25.601h-5.787l8.315-21.657h4.327l8.314,21.657h-5.849l-1.065-3.138h-7.157L180.764,25.601z M185.455,11.041
			l-2.163,6.944h4.294L185.455,11.041z"/>
		<path d="M200.221,25.601V3.944h7.191c2.282,0,4.02,0.153,5.482,1.188c1.92,1.34,2.922,3.381,2.922,6.062
			c0,3.501-1.825,6.122-4.902,6.975l5.301,7.432h-6.55l-4.141-6.976v6.976H200.221z M206.559,13.935c2.618,0,3.898-0.671,3.898-2.62
			c0-1.796-1.128-2.527-3.474-2.527h-1.459v5.147H206.559z"/>
		<path d="M222.513,25.601V3.944h7.401c3.442,0,5.851,0.457,8.104,2.588c2.071,1.95,3.167,4.782,3.167,8.348
			c0,3.289-1.067,5.999-3.137,8.04c-2.314,2.253-4.355,2.681-7.402,2.681H222.513z M235.916,14.695c0-3.899-2.103-6.092-6.001-6.092
			h-2.1V20.85h2.132C233.997,20.85,235.916,18.96,235.916,14.695z"/>
		<path d="M247.637,25.601V3.944h7.189c2.282,0,4.021,0.153,5.48,1.188c1.922,1.34,2.924,3.381,2.924,6.062
			c0,3.501-1.827,6.122-4.901,6.975l5.3,7.432h-6.55l-4.14-6.976v6.976H247.637z M253.973,13.935c2.62,0,3.9-0.671,3.9-2.62
			c0-1.796-1.128-2.527-3.475-2.527h-1.459v5.147H253.973z"/>
		<path d="M272.365,6.715c2.132-2.101,4.812-3.167,7.89-3.167c2.893,0,5.634,1.126,7.734,3.199c2.193,2.161,3.352,4.935,3.352,7.889
			c0,3.105-1.097,5.878-3.137,7.979c-2.103,2.194-4.966,3.381-7.979,3.381c-3.199,0-5.94-1.157-8.075-3.41
			c-2.04-2.164-3.074-4.845-3.074-8.041C269.076,11.559,270.233,8.818,272.365,6.715z M280.225,20.634
			c3.107,0,5.635-2.497,5.635-6.03c0-3.168-2.527-5.696-5.576-5.696c-3.228,0-5.754,2.528-5.754,5.696
			C274.53,18.016,277.239,20.634,280.225,20.634z"/>
		<path d="M300.2,6.715c2.132-2.101,4.812-3.167,7.889-3.167c2.893,0,5.635,1.126,7.734,3.199c2.194,2.161,3.352,4.935,3.352,7.889
			c0,3.105-1.097,5.878-3.137,7.979c-2.102,2.194-4.966,3.381-7.98,3.381c-3.197,0-5.938-1.157-8.071-3.41
			c-2.041-2.164-3.075-4.845-3.075-8.041C296.911,11.559,298.068,8.818,300.2,6.715z M308.057,20.634
			c3.107,0,5.635-2.497,5.635-6.03c0-3.168-2.527-5.696-5.573-5.696c-3.23,0-5.757,2.528-5.757,5.696
			C302.362,18.016,305.073,20.634,308.057,20.634z"/>
		<path d="M325.597,25.601V3.944h7.249l4.141,13.249l4.175-13.249h7.218v21.657h-5.057V11.283l-4.477,14.317h-3.747l-4.478-14.317
			v14.317H325.597z"/>
	</g>
	<g>
		<path d="M228.353,40.167l-0.975-2.588h-3.153l-0.975,2.588h-1.353l3.334-8.782h1.15l3.336,8.782H228.353z M226.942,36.404
			l-1.114-3.355h-0.025l-1.128,3.355H226.942z"/>
		<path d="M234.312,40.167h-1.28v-8.782h2.539c2.1,0,3.096,1.092,3.096,2.659s-0.996,2.658-3.096,2.658h-1.259V40.167z
			 M234.312,35.528h1.259c1.46,0,1.816-0.832,1.816-1.484c0-0.653-0.356-1.483-1.816-1.483h-1.259V35.528z"/>
		<path d="M240.55,40.167v-8.782h4.736v1.176h-3.454v2.589h3.454v1.171h-3.454v2.669h3.454v1.178H240.55z"/>
		<path d="M251.81,40.167l-2.897-4.068h-0.022v4.068h-1.282v-8.782h2.717c1.234,0,1.875,0.299,2.337,0.735
			c0.559,0.534,0.807,1.341,0.807,2.076c0,2.327-1.945,2.693-2.515,2.693l2.456,3.277H251.81z M248.89,35.917h0.877
			c0.523,0,2.423-0.022,2.423-1.721c0-0.735-0.501-1.636-1.949-1.636h-1.351V35.917z"/>
		<path d="M255.66,40.167v-8.782h1.284v8.782H255.66z"/>
		<path d="M262.387,40.167l-3.535-8.782h1.375l2.551,6.586l2.552-6.586h1.353l-3.525,8.782H262.387z"/>
		<path d="M273.113,40.167l-0.973-2.588h-3.157l-0.973,2.588h-1.353l3.334-8.782h1.151l3.334,8.782H273.113z M271.7,36.404
			l-1.113-3.355h-0.024l-1.127,3.355H271.7z"/>
		<path d="M282.043,40.167l-4.343-6.788h-0.023v6.788h-1.282v-8.782h1.398l4.274,6.682h0.023v-6.682h1.28v8.782H282.043z"/>
		<path d="M289.043,37.569c0,0.295,0.133,1.588,1.425,1.588c0.809,0,1.411-0.557,1.411-1.482c0-0.986-0.805-1.197-1.411-1.438
			c-1.174-0.449-1.459-0.594-1.862-0.985c-0.404-0.391-0.594-1.032-0.594-1.648c0-1.02,0.794-2.384,2.456-2.384
			c1.461,0,2.519,0.961,2.519,2.446h-1.285c0-0.973-0.71-1.272-1.233-1.272c-0.762,0-1.174,0.688-1.174,1.2
			c0,0.842,0.794,1.067,1.174,1.21c1.104,0.414,2.693,0.758,2.693,2.871c0,1.529-1.078,2.657-2.693,2.657
			c-1.21,0-2.703-0.806-2.703-2.763H289.043z"/>
		<path d="M299.377,40.332c-2.625,0-4.567-2.146-4.567-4.556c0-2.386,1.885-4.557,4.567-4.557c2.61,0,4.565,2.076,4.565,4.579
			C303.943,38.198,301.988,40.332,299.377,40.332z M299.377,32.394c-2.268,0-3.288,1.981-3.288,3.383
			c0,1.436,1.033,3.381,3.288,3.381c2.265,0,3.286-1.968,3.286-3.346C302.664,34.257,301.56,32.394,299.377,32.394z"/>
		<path d="M306.217,40.167v-8.782h1.282v7.604h3.05v1.178H306.217z"/>
		<path d="M318.188,37.332c0,0.994-0.332,1.72-0.891,2.255c-0.546,0.447-1.245,0.745-2.052,0.745c-0.806,0-1.508-0.298-2.054-0.745
			c-0.557-0.535-0.888-1.261-0.888-2.255v-5.947h1.281v5.91c0,1.626,1.185,1.862,1.66,1.862c0.475,0,1.663-0.236,1.663-1.862v-5.91
			h1.279V37.332z"/>
		<path d="M321.721,40.167v-7.606h-1.687v-1.176h4.651v1.176h-1.685v7.606H321.721z"/>
		<path d="M326.559,40.167v-8.782h1.282v8.782H326.559z"/>
		<path d="M334.627,40.332c-2.623,0-4.568-2.146-4.568-4.556c0-2.386,1.885-4.557,4.568-4.557c2.61,0,4.567,2.076,4.567,4.579
			C339.195,38.198,337.238,40.332,334.627,40.332z M334.627,32.394c-2.27,0-3.288,1.981-3.288,3.383
			c0,1.436,1.033,3.381,3.288,3.381c2.266,0,3.285-1.968,3.285-3.346C337.913,34.257,336.811,32.394,334.627,32.394z"/>
		<path d="M347.067,40.167l-4.341-6.788h-0.024v6.788h-1.282v-8.782h1.403l4.269,6.682h0.025v-6.682h1.281v8.782H347.067z"/>
	</g>
	<g>
		<path d="M362.743,7.218c0,3.24-2.647,5.841-5.826,5.841c-3.271,0-5.856-2.645-5.856-5.841c0-3.179,2.57-5.84,5.856-5.84
			C360.158,1.377,362.743,4.022,362.743,7.218z M352.285,7.218c0,2.568,2.032,4.678,4.618,4.678c2.552,0,4.617-2.079,4.617-4.678
			c0-2.537-2.005-4.678-4.617-4.678C354.272,2.54,352.285,4.681,352.285,7.218z M357.222,3.932c0.414,0,2.354,0,2.354,1.819
			c0,0.734-0.337,1.406-1.237,1.62v0.031c0.915,0.259,1.085,0.811,1.115,1.667c0.061,1.13,0.061,1.269,0.213,1.543h-1.146
			c-0.124-0.198-0.168-0.398-0.2-1.238c-0.044-1.055-0.258-1.346-1.405-1.438h-1.36v2.676h-1.146v-6.68H357.222z M355.556,6.866
			h1.376c0.475,0,1.498,0,1.498-1.07c-0.076-0.704-0.78-0.78-1.346-0.78h-1.528V6.866z"/>
	</g>
</g>
</svg>
