<?xml version="1.0" encoding="utf-8"?>
<!-- Generator: Adobe Illustrator 16.0.4, SVG Export Plug-In . SVG Version: 6.00 Build 0)  -->
<!DOCTYPE svg PUBLIC "-//W3C//DTD SVG 1.1//EN" "http://www.w3.org/Graphics/SVG/1.1/DTD/svg11.dtd">
<svg version="1.1" xmlns="http://www.w3.org/2000/svg" xmlns:xlink="http://www.w3.org/1999/xlink" x="0px" y="0px" width="175px"
	 height="31.5px" viewBox="-0.758 1.718 175 31.5" enable-background="new -0.758 1.718 175 31.5" xml:space="preserve">
<g id="Layer_2" display="none">
	<g display="inline">
		<g>
			<path d="M2.131,3.944L8.985,22.4l6.883-18.457H18L9.837,25.601H8.163L0,3.944H2.131z"/>
			<path d="M23.387,25.601V3.944h2.132v21.657H23.387z"/>
			<path d="M35.204,25.601h-2.102V3.944h5.818c2.041,0,3.685,0.184,5.208,1.248c1.736,1.221,2.802,3.382,2.802,5.637
				c0,3.289-2.193,6.092-5.239,6.305l5.239,8.468h-2.528l-6.427-10.449h2.04c2.803,0,4.63-1.827,4.63-4.292
				c0-1.523-0.518-2.772-1.553-3.717c-1.188-1.063-2.711-1.063-4.751-1.063h-3.137V25.601z"/>
			<path d="M56.703,25.601V6.077h-4.326V3.944H63.16v2.134h-4.325V25.6L56.703,25.601L56.703,25.601z"/>
			<path d="M71.015,3.944v13.249c0,0.152,0,0.306,0,0.458c0,1.461,0.031,2.682,0.548,3.775c0.761,1.615,2.346,2.622,4.234,2.622
				c3.381,0,4.812-2.316,4.812-6.855V3.944h2.102v13.768c0,5.574-2.193,8.345-6.763,8.345c-4.934,0-7.065-2.709-7.065-8.345V3.944
				H71.015z"/>
			<path d="M87.519,25.601l8.406-21.657h2.559l8.375,21.657h-2.283l-2.589-6.792h-9.626l-2.588,6.792H87.519z M97.144,5.985
				l-4.051,10.873h8.163L97.144,5.985z"/>
			<path d="M112.338,25.601V3.944h2.131v19.556h7.614v2.102H112.338z"/>
			<path d="M128.447,3.944h7.4c4.418,0,6.702,1.918,6.702,5.33c0,2.255-0.822,3.687-2.71,4.63c2.497,0.761,3.716,2.375,3.716,4.995
				c0,2.041-0.731,3.841-2.101,5.087c-1.585,1.434-3.563,1.615-6.427,1.615h-6.58V3.944L128.447,3.944z M134.844,12.35
				c1.979,0,2.894-0.427,2.894-1.828c0-1.432-0.792-2.041-2.438-2.041h-1.736v3.868L134.844,12.35L134.844,12.35z M135.362,21.062
				c2.009,0,2.954-0.486,2.954-2.253c0-1.829-0.945-2.315-3.046-2.315h-1.706v4.568H135.362z"/>
			<path d="M152.597,6.715c2.132-2.101,4.812-3.167,7.888-3.167c2.894,0,5.634,1.126,7.737,3.199
				c2.193,2.161,3.351,4.935,3.351,7.889c0,3.105-1.098,5.878-3.138,7.979c-2.101,2.193-4.964,3.381-7.98,3.381
				c-3.198,0-5.938-1.157-8.072-3.41c-2.041-2.164-3.076-4.845-3.076-8.041C149.307,11.559,150.464,8.818,152.597,6.715z
				 M160.454,20.634c3.107,0,5.635-2.497,5.635-6.03c0-3.168-2.528-5.695-5.575-5.695c-3.229,0-5.756,2.527-5.756,5.695
				C154.758,18.016,157.47,20.634,160.454,20.634z"/>
		</g>
	</g>
</g>
<g id="Layer_3">
	<g id="Layer_3_1_">
		<path fill="#030405" d="M27.005,3.943h15.018v2.485H29.747v9.864h11.867v2.486H29.747v10.124h12.276v2.483H27.005V3.943z"/>
		<path fill="#030405" d="M51.435,3.943h6.971c3.671,0,5.487,0.446,6.749,1.039c3.081,1.447,4.895,4.45,4.895,7.826
			c0,3.967-2.855,8.011-8.157,8.342l7.75,10.235h-3.45l-9.307-12.426c3.484,0,4.672-0.035,5.896-0.406
			c3.004-0.849,4.524-3.374,4.524-5.821c0-2.15-1.225-4.375-3.005-5.265c-1.631-0.853-3.04-1.039-5.339-1.039h-4.785v24.957h-2.742
			V3.943L51.435,3.943z"/>
		<path fill="#030405" d="M78.722,3.943h2.743v27.442h-2.743V3.943z"/>
		<path fill="#030405" d="M89.136,3.943h3.045l9.678,24.028l9.714-24.028h2.967l-11.386,27.442h-2.702L89.136,3.943z"/>
		<path fill="#030405" d="M127.813,3.943h3.08l11.793,27.442h-3.001l-3.972-9.234h-12.756l-4.005,9.234h-2.855L127.813,3.943z
			 M123.997,19.669h10.642L129.37,7.06L123.997,19.669z"/>
		<path fill="#030405" d="M150.425,3.943h3.712l15.314,22.77h0.074V3.943h2.747v27.442h-2.747l-16.28-24.141h-0.073v24.141h-2.747
			V3.943L150.425,3.943z"/>
		<path fill="#030405" d="M15.404,5.537c-1.521-1-3.301-1.594-7.084-1.594H0.682v27.442h2.743v-10.37H3.42v-3.624h0.005V6.43h3.969
			c2.93,0,3.932,0,5.488,0.704c2.152,1.002,3.188,2.93,3.188,5.006c0,2.077-1.037,4.005-3.188,5.006
			c-1.558,0.706-2.558,0.706-5.488,0.706H2.701v2.483h5.621c3.781,0,5.562-0.593,7.083-1.592c2.042-1.375,3.411-3.71,3.411-6.603
			C18.815,9.247,17.444,6.91,15.404,5.537z"/>
	</g>
</g>
</svg>
