<?xml version="1.0" encoding="utf-8"?>
<!-- Generator: Adobe Illustrator 16.0.4, SVG Export Plug-In . SVG Version: 6.00 Build 0)  -->
<!DOCTYPE svg PUBLIC "-//W3C//DTD SVG 1.1//EN" "http://www.w3.org/Graphics/SVG/1.1/DTD/svg11.dtd">
<svg version="1.1" id="FINANCIAL" xmlns="http://www.w3.org/2000/svg" xmlns:xlink="http://www.w3.org/1999/xlink" x="0px" y="0px"
	 width="276.667px" height="30.476px" viewBox="0 0 276.667 30.476" enable-background="new 0 0 276.667 30.476"
	 xml:space="preserve">
<g>
	<g>
		<path d="M17.123,3.303h9.072v1.502H18.78v5.958h7.168v1.502H18.78v6.114h7.415v1.502h-9.072V3.303z"/>
		<path d="M31.881,3.303h4.211c2.218,0,3.315,0.27,4.077,0.627c1.859,0.875,2.957,2.688,2.957,4.728c0,2.397-1.725,4.838-4.928,5.04
			l4.682,6.183h-2.083l-5.622-7.506c2.105,0,2.822-0.022,3.562-0.245c1.815-0.515,2.733-2.039,2.733-3.517
			c0-1.3-0.739-2.644-1.814-3.181c-0.986-0.516-1.836-0.627-3.226-0.627h-2.89v15.076h-1.657V3.303z"/>
		<path d="M48.364,3.303h1.657v16.578h-1.657V3.303z"/>
		<path d="M54.656,3.303h1.837l5.847,14.516l5.868-14.516H70l-6.876,16.578h-1.635L54.656,3.303z"/>
		<path d="M78.021,3.303h1.859l7.124,16.578h-1.815l-2.396-5.577h-7.707l-2.418,5.577h-1.725L78.021,3.303z M75.712,12.801h6.43
			L78.96,5.186L75.712,12.801z"/>
		<path d="M91.68,3.303h2.239l9.252,13.755h0.045V3.303h1.658v16.578h-1.658L93.382,5.297h-0.045v14.583H91.68V3.303z"/>
		<g>
			<path d="M110.827,3.303h9.049v3.719h-4.996v2.822h4.816v3.719h-4.816v6.317h-4.054V3.303z"/>
			<path d="M124.914,3.303h4.234v16.578h-4.234V3.303z"/>
			<path d="M134.901,3.303h3.651l6.408,10.417l0.045-0.045l-0.18-10.372h4.055v16.578h-3.674l-6.318-10.082l-0.045,0.022
				l0.112,10.059h-4.055V3.303z"/>
			<path d="M158.775,17.483l-0.873,2.397h-4.547l6.652-16.578h3.34l6.584,16.578h-4.592l-0.807-2.397H158.775z M159.941,14.124
				h3.473l-1.703-5.667h-0.023h-0.043L159.941,14.124z"/>
			<path d="M174.384,3.303h3.65l6.408,10.417l0.045-0.045l-0.18-10.372h4.055v16.578h-3.674l-6.318-10.082l-0.045,0.022
				l0.113,10.059h-4.055V3.303z"/>
			<path d="M210.578,13.675c-0.963,3.92-4.367,6.519-8.377,6.519c-5.195,0-8.736-4.144-8.736-8.624c0-4.235,3.271-8.579,8.691-8.579
				c5.197,0,7.975,4.009,8.422,6.606h-4.434c-0.471-1.23-1.727-2.889-4.01-2.889c-2.846,0-4.436,2.486-4.436,4.839
				c0,2.508,1.701,4.927,4.457,4.927c2.645,0,3.719-2.216,3.988-2.799H210.578z"/>
			<path d="M215.523,3.303h4.234v16.578h-4.234V3.303z"/>
			<path d="M229.632,17.483l-0.873,2.397h-4.547l6.652-16.578h3.338l6.586,16.578h-4.592l-0.807-2.397H229.632z M230.798,14.124
				h3.471l-1.701-5.667h-0.023H232.5L230.798,14.124z"/>
			<path d="M245.355,3.303h4.232v12.859h4.904v3.719h-9.137V3.303z"/>
		</g>
		<path d="M10.115,4.267C9.197,3.663,8.122,3.303,5.836,3.303H1.222v16.578H2.88v-6.264H2.876v-2.19H2.88V4.805h2.396
			c1.77,0,2.375,0,3.315,0.425c1.3,0.606,1.926,1.77,1.926,3.025c0,1.253-0.626,2.419-1.926,3.023
			c-0.94,0.426-1.545,0.426-3.315,0.426H2.441v1.501h3.395c2.285,0,3.36-0.359,4.278-0.963c1.232-0.829,2.061-2.24,2.061-3.987
			C12.176,6.508,11.347,5.096,10.115,4.267z"/>
	</g>
	<g>
		<path d="M168.38,28.869h-0.943v-6.45h1.865c1.545,0,2.277,0.802,2.277,1.952s-0.732,1.953-2.277,1.953h-0.922V28.869z
			 M168.38,25.461h0.922c1.074,0,1.334-0.61,1.334-1.09s-0.26-1.09-1.334-1.09h-0.922V25.461z"/>
		<path d="M176.048,28.869l-2.127-2.99h-0.018v2.99h-0.941v-6.45h1.996c0.906,0,1.377,0.218,1.717,0.54
			c0.41,0.393,0.594,0.985,0.594,1.525c0,1.709-1.43,1.979-1.848,1.979l1.805,2.406H176.048z M173.904,25.748h0.645
			c0.385,0,1.779-0.017,1.779-1.264c0-0.54-0.365-1.203-1.43-1.203h-0.994V25.748z"/>
		<path d="M178.88,28.869v-6.45h0.941v6.45H178.88z"/>
		<path d="M185.921,28.869l-3.189-4.986h-0.018v4.986h-0.941v-6.45h1.029l3.139,4.907h0.016v-4.907h0.941v6.45H185.921z"/>
		<path d="M189.501,28.869v-5.588h-1.236v-0.862h3.416v0.862h-1.238v5.588H189.501z"/>
		<path d="M199.158,28.991c-1.926,0-3.355-1.577-3.355-3.348c0-1.752,1.387-3.347,3.355-3.347c1.918,0,3.357,1.525,3.357,3.365
			C202.515,27.422,201.076,28.991,199.158,28.991z M199.158,23.159c-1.664,0-2.414,1.456-2.414,2.484
			c0,1.056,0.758,2.485,2.414,2.485c1.666,0,2.416-1.447,2.416-2.459C201.574,24.527,200.763,23.159,199.158,23.159z"/>
		<path d="M208.3,28.869l-3.191-4.986h-0.016v4.986h-0.941v-6.45h1.027l3.139,4.907h0.018v-4.907h0.941v6.45H208.3z"/>
		<path d="M214.216,22.419h2.092c1.342,0,2.145,0.514,2.633,1.185c0.463,0.646,0.662,1.43,0.662,2.059
			c0,0.871-0.332,1.804-0.811,2.274c-0.74,0.732-1.613,0.933-2.52,0.933h-2.057V22.419z M215.158,28.006h1.125
			c1.133,0,2.379-0.566,2.379-2.344c0-0.978-0.602-2.381-2.363-2.381h-1.141V28.006z"/>
		<path d="M221.248,28.869v-6.45h3.479v0.862h-2.535v1.9h2.535v0.863h-2.535v1.961h2.535v0.863H221.248z"/>
		<path d="M232.421,28.869v-5.447h-0.025l-2.172,5.447h-0.566l-2.18-5.447h-0.016v5.447h-0.941v-6.45h1.48l1.936,4.942l1.945-4.942
			h1.48v6.45H232.421z"/>
		<path d="M239.515,28.869l-0.715-1.9h-2.318l-0.715,1.9h-0.994l2.449-6.45h0.846l2.449,6.45H239.515z M238.478,26.105l-0.82-2.467
			h-0.018l-0.828,2.467H238.478z"/>
		<path d="M246.076,28.869l-3.189-4.986h-0.018v4.986h-0.941v-6.45h1.029l3.139,4.907h0.016v-4.907h0.941v6.45H246.076z"/>
		<path d="M248.925,22.419h2.092c1.342,0,2.145,0.514,2.633,1.185c0.461,0.646,0.662,1.43,0.662,2.059
			c0,0.871-0.332,1.804-0.811,2.274c-0.742,0.732-1.613,0.933-2.52,0.933h-2.057V22.419z M249.867,28.006h1.123
			c1.135,0,2.381-0.566,2.381-2.344c0-0.978-0.602-2.381-2.363-2.381h-1.141V28.006z"/>
	</g>
</g>
</svg>
