<?xml version="1.0" encoding="utf-8"?>
<!-- Generator: Adobe Illustrator 16.0.4, SVG Export Plug-In . SVG Version: 6.00 Build 0)  -->
<!DOCTYPE svg PUBLIC "-//W3C//DTD SVG 1.1//EN" "http://www.w3.org/Graphics/SVG/1.1/DTD/svg11.dtd">
<svg version="1.1" id="Layer_1" xmlns="http://www.w3.org/2000/svg" xmlns:xlink="http://www.w3.org/1999/xlink" x="0px" y="0px"
	 width="276.667px" height="30.476px" viewBox="0 0 276.667 30.476" enable-background="new 0 0 276.667 30.476"
	 xml:space="preserve">
<g>
	<g>
		<path d="M2.833,3.353l5.178,13.946l5.201-13.946h1.611L8.655,19.716H7.39L1.222,3.353H2.833z"/>
		<path d="M18.893,19.716V3.353h1.611v16.363H18.893z"/>
		<path d="M27.821,19.716h-1.588V3.353h4.396c1.542,0,2.785,0.139,3.935,0.944c1.312,0.921,2.118,2.555,2.118,4.258
			c0,2.486-1.657,4.603-3.958,4.764l3.958,6.398h-1.91l-4.856-7.894h1.542c2.117,0,3.498-1.381,3.498-3.245
			c0-1.151-0.392-2.095-1.174-2.808c-0.897-0.806-2.048-0.806-3.59-0.806h-2.371V19.716z"/>
		<path d="M44.065,19.716V4.964h-3.268V3.353h8.147v1.611h-3.268v14.752H44.065z"/>
		<path d="M54.879,3.353v10.012c0,0.115,0,0.229,0,0.345c0,1.104,0.022,2.026,0.414,2.854c0.576,1.221,1.772,1.98,3.199,1.98
			c2.554,0,3.636-1.75,3.636-5.179V3.353h1.588v10.403c0,4.211-1.657,6.305-5.109,6.305c-3.728,0-5.339-2.049-5.339-6.305V3.353
			H54.879z"/>
		<path d="M67.349,19.716l6.352-16.363h1.933l6.329,16.363h-1.726l-1.956-5.132h-7.273l-1.956,5.132H67.349z M74.622,4.895
			l-3.061,8.216h6.167L74.622,4.895z"/>
		<path d="M86.101,19.716V3.353h1.611v14.774h5.753v1.589H86.101z"/>
		<path d="M98.273,3.353h5.592c3.338,0,5.064,1.45,5.064,4.027c0,1.704-0.622,2.785-2.048,3.499
			c1.887,0.575,2.808,1.795,2.808,3.774c0,1.542-0.552,2.9-1.588,3.843c-1.197,1.082-2.692,1.22-4.856,1.22h-4.971V3.353z
			 M103.106,9.705c1.496,0,2.187-0.322,2.187-1.381c0-1.082-0.599-1.542-1.841-1.542h-1.312v2.923H103.106z M103.497,16.287
			c1.519,0,2.232-0.368,2.232-1.703c0-1.381-0.714-1.749-2.301-1.749h-1.29v3.452H103.497z"/>
		<path d="M116.52,5.447c1.61-1.588,3.635-2.394,5.959-2.394c2.187,0,4.257,0.852,5.846,2.417c1.657,1.633,2.532,3.728,2.532,5.96
			c0,2.347-0.829,4.442-2.371,6.029c-1.587,1.657-3.751,2.555-6.029,2.555c-2.417,0-4.488-0.874-6.099-2.577
			c-1.542-1.634-2.324-3.66-2.324-6.076C114.034,9.106,114.908,7.035,116.52,5.447z M122.457,15.964
			c2.347,0,4.257-1.887,4.257-4.556c0-2.393-1.91-4.304-4.211-4.304c-2.439,0-4.35,1.911-4.35,4.304
			C118.153,13.985,120.201,15.964,122.457,15.964z"/>
		<path d="M137.802,19.716h-4.373l6.283-16.363h3.269l6.282,16.363h-4.419l-0.806-2.37h-5.407L137.802,19.716z M141.347,8.715
			l-1.635,5.247h3.244L141.347,8.715z"/>
		<path d="M152.504,19.716V3.353h5.432c1.726,0,3.038,0.115,4.142,0.897c1.451,1.013,2.209,2.555,2.209,4.58
			c0,2.646-1.379,4.626-3.703,5.27l4.004,5.616h-4.949l-3.129-5.27v5.27H152.504z M157.292,10.901c1.979,0,2.945-0.506,2.945-1.979
			c0-1.357-0.852-1.91-2.625-1.91h-1.104v3.889H157.292z"/>
		<path d="M169.347,19.716V3.353h5.593c2.601,0,4.418,0.346,6.122,1.957c1.564,1.473,2.393,3.613,2.393,6.306
			c0,2.485-0.806,4.534-2.37,6.075c-1.749,1.702-3.292,2.025-5.593,2.025H169.347z M179.473,11.477c0-2.946-1.588-4.603-4.533-4.603
			h-1.587v9.252h1.609C178.023,16.126,179.473,14.699,179.473,11.477z"/>
		<path d="M188.33,19.716V3.353h5.432c1.726,0,3.038,0.115,4.143,0.897c1.45,1.013,2.209,2.555,2.209,4.58
			c0,2.646-1.381,4.626-3.705,5.27l4.004,5.616h-4.947l-3.13-5.27v5.27H188.33z M193.117,10.901c1.979,0,2.945-0.506,2.945-1.979
			c0-1.357-0.852-1.91-2.623-1.91h-1.104v3.889H193.117z"/>
		<path d="M207.013,5.447c1.611-1.588,3.637-2.394,5.961-2.394c2.186,0,4.257,0.852,5.844,2.417c1.658,1.633,2.532,3.728,2.532,5.96
			c0,2.347-0.828,4.442-2.37,6.029c-1.588,1.657-3.752,2.555-6.029,2.555c-2.416,0-4.487-0.874-6.1-2.577
			c-1.541-1.634-2.324-3.66-2.324-6.076C204.527,9.106,205.402,7.035,207.013,5.447z M212.951,15.964
			c2.348,0,4.258-1.887,4.258-4.556c0-2.393-1.91-4.304-4.212-4.304c-2.439,0-4.35,1.911-4.35,4.304
			C208.647,13.985,210.695,15.964,212.951,15.964z"/>
		<path d="M228.042,5.447c1.611-1.588,3.637-2.394,5.961-2.394c2.187,0,4.258,0.852,5.846,2.417c1.656,1.633,2.531,3.728,2.531,5.96
			c0,2.347-0.828,4.442-2.369,6.029c-1.59,1.657-3.752,2.555-6.029,2.555c-2.418,0-4.488-0.874-6.1-2.577
			c-1.542-1.634-2.324-3.66-2.324-6.076C225.558,9.106,226.433,7.035,228.042,5.447z M233.982,15.964
			c2.346,0,4.256-1.887,4.256-4.556c0-2.393-1.91-4.304-4.211-4.304c-2.439,0-4.35,1.911-4.35,4.304
			C229.677,13.985,231.726,15.964,233.982,15.964z"/>
		<path d="M247.233,19.716V3.353h5.478l3.129,10.012l3.153-10.012h5.454v16.363h-3.82V8.899l-3.383,10.816h-2.83l-3.385-10.816
			v10.816H247.233z"/>
	</g>
	<g>
		<path d="M173.759,28.98l-0.736-1.955h-2.383l-0.736,1.955h-1.021l2.518-6.635h0.871l2.519,6.635H173.759z M172.693,26.138
			l-0.844-2.536h-0.018l-0.853,2.536H172.693z"/>
		<path d="M178.261,28.98h-0.968v-6.635h1.919c1.586,0,2.34,0.824,2.34,2.008s-0.754,2.01-2.34,2.01h-0.951V28.98z M178.261,25.475
			h0.951c1.104,0,1.371-0.627,1.371-1.121c0-0.492-0.268-1.12-1.371-1.12h-0.951V25.475z"/>
		<path d="M182.975,28.98v-6.635h3.578v0.888h-2.61v1.955h2.61v0.887h-2.61v2.017h2.61v0.889H182.975z"/>
		<path d="M191.482,28.98l-2.189-3.074h-0.018v3.074h-0.969v-6.635h2.054c0.933,0,1.417,0.225,1.767,0.556
			c0.422,0.403,0.609,1.014,0.609,1.569c0,1.758-1.471,2.035-1.9,2.035l1.855,2.475H191.482z M189.275,25.77h0.664
			c0.395,0,1.829-0.018,1.829-1.299c0-0.556-0.378-1.237-1.47-1.237h-1.023V25.77z"/>
		<path d="M194.392,28.98v-6.635h0.969v6.635H194.392z"/>
		<path d="M199.474,28.98l-2.672-6.635h1.039l1.929,4.976l1.928-4.976h1.021l-2.663,6.635H199.474z"/>
		<path d="M207.578,28.98l-0.735-1.955h-2.384l-0.736,1.955h-1.021l2.518-6.635h0.871l2.52,6.635H207.578z M206.511,26.138
			l-0.842-2.536h-0.02l-0.852,2.536H206.511z"/>
		<path d="M214.326,28.98l-3.281-5.128h-0.018v5.128h-0.969v-6.635h1.057l3.229,5.048h0.019v-5.048h0.968v6.635H214.326z"/>
		<path d="M219.616,27.018c0,0.225,0.099,1.2,1.075,1.2c0.609,0,1.066-0.421,1.066-1.12c0-0.744-0.608-0.905-1.066-1.085
			c-0.887-0.34-1.102-0.448-1.407-0.745c-0.306-0.295-0.448-0.779-0.448-1.245c0-0.771,0.601-1.802,1.855-1.802
			c1.104,0,1.902,0.727,1.902,1.847h-0.97c0-0.735-0.537-0.96-0.933-0.96c-0.574,0-0.887,0.52-0.887,0.906
			c0,0.637,0.602,0.807,0.887,0.914c0.834,0.314,2.035,0.574,2.035,2.17c0,1.156-0.814,2.008-2.035,2.008
			c-0.914,0-2.043-0.609-2.043-2.088H219.616z"/>
		<path d="M227.421,29.105c-1.98,0-3.45-1.622-3.45-3.442c0-1.802,1.425-3.442,3.45-3.442c1.973,0,3.452,1.568,3.452,3.46
			C230.874,27.492,229.394,29.105,227.421,29.105z M227.421,23.107c-1.713,0-2.482,1.498-2.482,2.556
			c0,1.085,0.779,2.555,2.482,2.555c1.713,0,2.484-1.487,2.484-2.527C229.906,24.516,229.072,23.107,227.421,23.107z"/>
		<path d="M232.591,28.98v-6.635h0.968v5.746h2.305v0.889H232.591z"/>
		<path d="M241.636,26.838c0,0.752-0.252,1.301-0.673,1.703c-0.413,0.341-0.941,0.564-1.552,0.564c-0.609,0-1.138-0.224-1.552-0.564
			c-0.421-0.402-0.671-0.951-0.671-1.703v-4.492h0.969v4.465c0,1.229,0.896,1.407,1.254,1.407c0.358,0,1.256-0.179,1.256-1.407
			v-4.465h0.969V26.838z"/>
		<path d="M244.304,28.98v-5.747h-1.273v-0.888h3.515v0.888h-1.272v5.747H244.304z"/>
		<path d="M247.96,28.98v-6.635h0.969v6.635H247.96z"/>
		<path d="M254.056,29.105c-1.981,0-3.451-1.622-3.451-3.442c0-1.802,1.424-3.442,3.451-3.442c1.973,0,3.451,1.568,3.451,3.46
			C257.507,27.492,256.029,29.105,254.056,29.105z M254.056,23.107c-1.713,0-2.483,1.498-2.483,2.556
			c0,1.085,0.78,2.555,2.483,2.555c1.713,0,2.482-1.487,2.482-2.527C256.539,24.516,255.707,23.107,254.056,23.107z"/>
		<path d="M263.457,28.98l-3.281-5.128h-0.018v5.128h-0.969v-6.635h1.059l3.227,5.048h0.02v-5.048h0.967v6.635H263.457z"/>
	</g>
	<g>
		<path d="M275.298,5.827c0,2.448-1.998,4.412-4.4,4.412c-2.473,0-4.425-1.998-4.425-4.412c0-2.403,1.94-4.413,4.425-4.413
			C273.346,1.414,275.298,3.413,275.298,5.827z M267.397,5.827c0,1.94,1.537,3.535,3.489,3.535c1.93,0,3.488-1.571,3.488-3.535
			c0-1.918-1.514-3.535-3.488-3.535C268.899,2.292,267.397,3.909,267.397,5.827z M271.128,3.344c0.312,0,1.779,0,1.779,1.375
			c0,0.555-0.254,1.062-0.936,1.224v0.023c0.692,0.197,0.819,0.612,0.844,1.259c0.045,0.854,0.045,0.958,0.16,1.167h-0.865
			c-0.094-0.15-0.127-0.3-0.15-0.936c-0.035-0.797-0.197-1.016-1.062-1.086h-1.028v2.021h-0.866V3.344H271.128z M269.87,5.562h1.039
			c0.358,0,1.132,0,1.132-0.809c-0.057-0.531-0.589-0.589-1.016-0.589h-1.155V5.562z"/>
	</g>
</g>
</svg>
