<?xml version="1.0" encoding="utf-8"?>
<!-- Generator: Adobe Illustrator 16.0.4, SVG Export Plug-In . SVG Version: 6.00 Build 0)  -->
<!DOCTYPE svg PUBLIC "-//W3C//DTD SVG 1.1//EN" "http://www.w3.org/Graphics/SVG/1.1/DTD/svg11.dtd">
<svg version="1.1" id="DOTAPPROVE" xmlns="http://www.w3.org/2000/svg" xmlns:xlink="http://www.w3.org/1999/xlink" x="0px" y="0px"
	 width="276.667px" height="30.476px" viewBox="0 0 276.667 30.476" enable-background="new 0 0 276.667 30.476"
	 xml:space="preserve">
<g>
	<path d="M5.75,3.358c2.331,0,4.013,0.404,5.403,1.569c1.815,1.524,2.869,3.833,2.869,6.367c0,2.869-1.188,5.247-3.183,6.681
		c-1.793,1.277-3.564,1.322-5.784,1.322H1.222V3.358H5.75z M2.769,17.795h3.25c4.147,0,6.322-2.466,6.322-6.546
		c0-2.107-0.785-3.923-2.152-5.111c-1.322-1.143-2.735-1.255-4.55-1.255h-2.87V17.795z"/>
	<path d="M19.843,5.353c1.547-1.524,3.43-2.309,5.627-2.309c2.242,0,4.147,0.785,5.716,2.332c1.614,1.591,2.443,3.586,2.443,5.851
		s-0.695,4.147-2.107,5.695c-1.614,1.77-3.677,2.689-6.075,2.689c-4.573,0-8.092-3.632-8.092-8.385
		C17.355,9.007,18.229,6.945,19.843,5.353z M25.56,18.109c3.586,0,6.456-2.983,6.456-6.905c0-3.542-2.87-6.635-6.568-6.635
		c-1.479,0-2.87,0.515-4.013,1.479c-1.502,1.277-2.443,3.25-2.443,5.201C18.992,15.195,21.906,18.109,25.56,18.109z"/>
	<path d="M38.999,19.297V4.927h-3.184V3.358h7.936v1.569h-3.183v14.37H38.999z"/>
	<path d="M49.801,19.297h-4.26l6.12-15.939h3.183l6.12,15.939h-4.304l-0.785-2.309h-5.268L49.801,19.297z M53.253,8.581
		l-1.592,5.111h3.161L53.253,8.581z"/>
	<path d="M63.898,19.297V3.358h5.291c1.681,0,2.958,0.112,4.035,0.875c1.413,0.986,2.152,2.488,2.152,4.482
		c0,2.062-0.941,3.767-2.533,4.73c-1.009,0.605-2.264,0.717-3.923,0.717h-1.121v5.134H63.898z M68.561,10.71
		c1.928,0,2.869-0.493,2.869-1.928c0-1.322-0.829-1.86-2.555-1.86h-1.031v3.788H68.561z"/>
	<path d="M80.012,19.297V3.358h5.291c1.681,0,2.959,0.112,4.035,0.875c1.412,0.986,2.151,2.488,2.151,4.482
		c0,2.062-0.941,3.767-2.532,4.73c-1.009,0.605-2.265,0.717-3.923,0.717h-1.121v5.134H80.012z M84.675,10.71
		c1.927,0,2.869-0.493,2.869-1.928c0-1.322-0.828-1.86-2.555-1.86h-1.032v3.788H84.675z"/>
	<path d="M96.126,19.297V3.358h5.291c1.682,0,2.959,0.112,4.035,0.875c1.412,0.986,2.152,2.488,2.152,4.46
		c0,2.578-1.346,4.506-3.609,5.133l3.9,5.47h-4.82l-3.048-5.134v5.134H96.126z M100.79,10.71c1.927,0,2.869-0.493,2.869-1.928
		c0-1.322-0.83-1.86-2.556-1.86h-1.076v3.788H100.79z"/>
	<path d="M114.103,5.398c1.568-1.547,3.541-2.331,5.806-2.331c2.13,0,4.147,0.829,5.694,2.354c1.613,1.591,2.465,3.631,2.465,5.806
		c0,2.286-0.807,4.327-2.309,5.873c-1.547,1.615-3.654,2.488-5.873,2.488c-2.354,0-4.371-0.852-5.941-2.51
		c-1.502-1.592-2.264-3.565-2.264-5.918C111.681,8.962,112.532,6.945,114.103,5.398z M119.886,15.642
		c2.286,0,4.146-1.837,4.146-4.438c0-2.331-1.86-4.192-4.102-4.192c-2.377,0-4.237,1.861-4.237,4.192
		C115.693,13.715,117.688,15.642,119.886,15.642z"/>
	<path d="M135.708,19.297l-4.932-15.939h4.035l3.004,10.671l3.004-10.671h4.035l-4.932,15.939H135.708z"/>
	<path d="M148.259,19.297V3.358h8.652v3.52h-4.752v2.578h4.752v3.542h-4.752v2.779h4.752v3.52H148.259z"/>
	<g>
		<path d="M68.538,28.922l-0.716-1.904H65.5l-0.717,1.904h-0.995l2.453-6.463h0.848l2.454,6.463H68.538z M67.499,26.152l-0.82-2.469
			H66.66l-0.831,2.469H67.499z"/>
		<path d="M72.924,28.922h-0.943v-6.463h1.869c1.546,0,2.279,0.803,2.279,1.957c0,1.152-0.733,1.957-2.279,1.957h-0.926V28.922z
			 M72.924,25.508h0.926c1.075,0,1.336-0.611,1.336-1.092s-0.261-1.092-1.336-1.092h-0.926V25.508z"/>
		<path d="M77.515,28.922v-6.463H81v0.865h-2.542v1.904H81v0.863h-2.542v1.965H81v0.865H77.515z"/>
		<path d="M85.801,28.922l-2.131-2.994h-0.017v2.994h-0.944v-6.463h2c0.909,0,1.38,0.219,1.72,0.541
			c0.411,0.395,0.594,0.988,0.594,1.529c0,1.713-1.432,1.982-1.851,1.982l1.808,2.41H85.801z M83.652,25.795h0.646
			c0.385,0,1.782-0.018,1.782-1.266c0-0.541-0.368-1.205-1.432-1.205h-0.996V25.795z"/>
		<path d="M88.636,28.922v-6.463h0.943v6.463H88.636z"/>
		<path d="M93.586,28.922l-2.603-6.463h1.014l1.877,4.848l1.879-4.848h0.994l-2.594,6.463H93.586z"/>
		<path d="M101.479,28.922l-0.716-1.904h-2.322l-0.717,1.904h-0.995l2.453-6.463h0.848l2.454,6.463H101.479z M100.44,26.152
			l-0.82-2.469h-0.018l-0.83,2.469H100.44z"/>
		<path d="M108.054,28.922l-3.197-4.994h-0.017v4.994h-0.943v-6.463h1.029l3.146,4.918h0.018v-4.918h0.941v6.463H108.054z"/>
		<path d="M113.206,27.01c0,0.219,0.096,1.17,1.048,1.17c0.594,0,1.038-0.41,1.038-1.092c0-0.725-0.592-0.881-1.038-1.057
			c-0.864-0.332-1.074-0.438-1.372-0.725c-0.297-0.287-0.436-0.76-0.436-1.215c0-0.75,0.585-1.754,1.808-1.754
			c1.075,0,1.853,0.707,1.853,1.799h-0.945c0-0.717-0.522-0.936-0.907-0.936c-0.56,0-0.864,0.506-0.864,0.883
			c0,0.621,0.586,0.787,0.864,0.891c0.812,0.305,1.981,0.559,1.981,2.113c0,1.127-0.793,1.957-1.981,1.957
			c-0.892,0-1.991-0.594-1.991-2.035H113.206z"/>
		<path d="M120.81,29.045c-1.93,0-3.361-1.58-3.361-3.354c0-1.756,1.389-3.354,3.361-3.354c1.922,0,3.362,1.527,3.362,3.371
			C124.172,27.473,122.731,29.045,120.81,29.045z M120.81,23.201c-1.668,0-2.418,1.459-2.418,2.49c0,1.057,0.76,2.488,2.418,2.488
			c1.668,0,2.42-1.449,2.42-2.463C123.229,24.572,122.417,23.201,120.81,23.201z"/>
		<path d="M125.845,28.922v-6.463h0.943v5.598h2.244v0.865H125.845z"/>
		<path d="M134.655,26.836c0,0.732-0.244,1.266-0.654,1.658c-0.402,0.332-0.918,0.551-1.512,0.551s-1.108-0.219-1.512-0.551
			c-0.41-0.393-0.654-0.926-0.654-1.658v-4.377h0.943v4.35c0,1.195,0.873,1.371,1.223,1.371s1.223-0.176,1.223-1.371v-4.35h0.943
			V26.836z"/>
		<path d="M137.255,28.922v-5.598h-1.24v-0.865h3.424v0.865h-1.241v5.598H137.255z"/>
		<path d="M140.816,28.922v-6.463h0.943v6.463H140.816z"/>
		<path d="M146.753,29.045c-1.93,0-3.361-1.58-3.361-3.354c0-1.756,1.389-3.354,3.361-3.354c1.922,0,3.363,1.527,3.363,3.371
			C150.117,27.473,148.675,29.045,146.753,29.045z M146.753,23.201c-1.668,0-2.418,1.459-2.418,2.49c0,1.057,0.76,2.488,2.418,2.488
			c1.67,0,2.42-1.449,2.42-2.463C149.173,24.572,148.361,23.201,146.753,23.201z"/>
		<path d="M155.912,28.922l-3.195-4.994h-0.018v4.994h-0.945v-6.463h1.033l3.141,4.918h0.02v-4.918h0.943v6.463H155.912z"/>
	</g>
	<g>
		<path d="M169.23,5.795c0,2.42-1.977,4.362-4.352,4.362c-2.443,0-4.373-1.976-4.373-4.362c0-2.375,1.918-4.363,4.373-4.363
			C167.3,1.432,169.23,3.408,169.23,5.795z M161.419,5.795c0,1.919,1.518,3.494,3.449,3.494c1.906,0,3.447-1.553,3.447-3.494
			c0-1.896-1.496-3.495-3.447-3.495C162.904,2.3,161.419,3.899,161.419,5.795z M165.107,3.34c0.309,0,1.76,0,1.76,1.359
			c0,0.548-0.252,1.05-0.926,1.21v0.022c0.686,0.194,0.811,0.605,0.834,1.245c0.045,0.845,0.045,0.947,0.16,1.153h-0.857
			c-0.092-0.148-0.125-0.297-0.148-0.925c-0.033-0.788-0.193-1.005-1.051-1.074h-1.016V8.33h-0.857V3.34H165.107z M163.863,5.532
			h1.027c0.354,0,1.119,0,1.119-0.8c-0.057-0.525-0.582-0.582-1.004-0.582h-1.143V5.532z"/>
	</g>
</g>
</svg>
