<?xml version="1.0" encoding="utf-8"?>
<!-- Generator: Adobe Illustrator 16.0.4, SVG Export Plug-In . SVG Version: 6.00 Build 0)  -->
<!DOCTYPE svg PUBLIC "-//W3C//DTD SVG 1.1//EN" "http://www.w3.org/Graphics/SVG/1.1/DTD/svg11.dtd">
<svg version="1.1" id="ELECTRUM" xmlns="http://www.w3.org/2000/svg" xmlns:xlink="http://www.w3.org/1999/xlink" x="0px" y="0px"
	 width="276.667px" height="30.476px" viewBox="0 0 276.667 30.476" enable-background="new 0 0 276.667 30.476"
	 xml:space="preserve">
<g>
	<g>
		<path d="M1.222,3.287h8.937v1.479H2.855v5.869h7.061v1.479H2.855v6.024h7.304v1.479H1.222V3.287z"/>
		<path d="M14.901,3.287h1.633v14.85h6.752v1.479h-8.385V3.287z"/>
		<path d="M26.418,3.287h8.937v1.479h-7.304v5.869h7.061v1.479h-7.061v6.024h7.304v1.479h-8.937V3.287z"/>
		<path d="M55.301,15.334c-1.743,3.199-4.899,4.568-7.524,4.568c-4.568,0-8.54-3.597-8.54-8.43c0-4.832,3.861-8.451,8.518-8.451
			c4.192,0,6.84,2.936,7.48,4.458h-1.831C51.616,4.809,48.725,4.5,47.732,4.5c-3.817,0-6.862,3.354-6.862,6.995
			c0,3.817,3.354,6.929,6.885,6.929c0.816,0,3.486-0.111,5.715-3.089H55.301z"/>
		<path d="M61.697,4.765h-3.751V3.287h9.113v1.479H63.33v14.85h-1.633V4.765z"/>
		<path d="M70.346,3.287h4.148c2.184,0,3.266,0.265,4.016,0.617c1.831,0.861,2.913,2.648,2.913,4.656
			c0,2.361-1.699,4.767-4.854,4.965l4.612,6.09h-2.052l-5.539-7.392c2.074,0,2.78-0.022,3.509-0.243
			c1.787-0.508,2.692-2.008,2.692-3.464c0-1.28-0.728-2.604-1.788-3.134c-0.971-0.508-1.81-0.617-3.177-0.617h-2.846v14.85h-1.633
			V3.287z"/>
		<path d="M87.07,3.287v10.172c0,1.191,0.177,2.272,0.552,2.957c0.993,1.831,2.604,2.008,3.376,2.008s2.383-0.178,3.376-2.008
			c0.375-0.685,0.552-1.766,0.552-2.957V3.287h1.633v10.172c0,1.368-0.221,2.538-0.618,3.399c-1.125,2.449-3.42,3.045-4.943,3.045
			s-3.817-0.596-4.943-3.045c-0.397-0.861-0.618-2.031-0.618-3.399V3.287H87.07z"/>
		<path d="M101.499,3.287h2.516l5.936,13.901l5.958-13.901h2.516v16.329h-1.633V5.074h-0.044l-6.112,14.542h-1.39l-6.068-14.542
			h-0.044v14.542h-1.633V3.287z"/>
		<path d="M123.165,3.287h5.362l3.244,10.745h0.044l3.199-10.745h5.384v16.329h-3.699L136.69,7.39l-0.043-0.044l-3.487,12.269
			h-2.758l-3.486-12.269l-0.044,0.044l-0.008,12.225h-3.699V3.287z"/>
		<path d="M149.068,3.287v9.863c0,1.104,0.066,3.111,2.119,3.111c2.072,0,2.072-1.81,2.072-3.111V3.287h4.172v9.863
			c0,2.735-0.596,3.95-1.633,5.008c-1.059,1.082-2.539,1.766-4.568,1.766c-1.191,0-3.354-0.287-4.699-1.742
			c-1.346-1.48-1.633-2.626-1.633-5.032V3.287H149.068z"/>
		<path d="M162.041,3.287h4.17v12.666h4.834v3.663h-9.004V3.287z"/>
		<path d="M175.214,6.95h-3.223V3.287h10.592V6.95h-3.199v12.666h-4.17V6.95z"/>
		<path d="M185.847,3.287h4.172v16.329h-4.172V3.287z"/>
		<path d="M194.564,3.287h5.361l3.244,10.745h0.045l3.199-10.745h5.383v16.329h-3.708l0.001-12.225l-0.043-0.044l-3.486,12.269
			h-2.758l-3.488-12.269l-0.043,0.044l0.003,12.225h-3.71V3.287z"/>
		<path d="M216.339,3.287h9.068V6.95h-5.074v2.537h4.92v3.663h-4.92v2.803h5.074v3.663h-9.068V3.287z"/>
		<path d="M229.357,3.287h5.406c1.832,0,5.098,0,7.215,3.045c1.127,1.544,1.502,3.288,1.502,5.075c0,4.457-2.207,8.208-8.408,8.208
			h-5.715V3.287z M233.527,15.953h1.787c3.111,0,3.994-2.163,3.994-4.48c0-0.927-0.197-2.096-0.793-3.022
			c-0.486-0.729-1.324-1.5-3.178-1.5h-1.811V15.953z"/>
		<path d="M247.537,3.287h4.17v16.329h-4.17V3.287z"/>
		<path d="M260.312,17.254l-0.861,2.361h-4.479l6.553-16.329h3.289l6.486,16.329h-4.523l-0.795-2.361H260.312z M261.46,13.944h3.418
			l-1.676-5.582h-0.021h-0.045L261.46,13.944z"/>
	</g>
	<g>
		<path d="M176.681,28.971l-0.727-1.932h-2.359l-0.727,1.932h-1.012l2.492-6.561h0.861l2.49,6.561H176.681z M175.626,26.16
			l-0.834-2.508h-0.018l-0.842,2.508H175.626z"/>
		<path d="M181.751,28.971h-0.957V22.41h1.896c1.57,0,2.314,0.816,2.314,1.986s-0.744,1.986-2.314,1.986h-0.939V28.971z
			 M181.751,25.504h0.939c1.092,0,1.357-0.619,1.357-1.107s-0.266-1.107-1.357-1.107h-0.939V25.504z"/>
		<path d="M186.521,28.971V22.41h3.537v0.879h-2.58v1.932h2.58V26.1h-2.58v1.994h2.58v0.877H186.521z"/>
		<path d="M195.041,28.971l-2.164-3.041h-0.018v3.041h-0.957V22.41h2.031c0.922,0,1.4,0.223,1.746,0.551
			c0.416,0.398,0.604,1.002,0.604,1.551c0,1.738-1.455,2.012-1.879,2.012l1.834,2.447H195.041z M192.859,25.797h0.656
			c0.391,0,1.809-0.018,1.809-1.285c0-0.549-0.371-1.223-1.453-1.223h-1.012V25.797z"/>
		<path d="M198.029,28.971V22.41h0.957v6.561H198.029z"/>
		<path d="M203.162,28.971l-2.643-6.561h1.027l1.906,4.922l1.906-4.922h1.012l-2.633,6.561H203.162z"/>
		<path d="M211.283,28.971l-0.727-1.932h-2.357l-0.729,1.932h-1.01l2.492-6.561h0.859l2.49,6.561H211.283z M210.228,26.16
			l-0.834-2.508h-0.018l-0.842,2.508H210.228z"/>
		<path d="M218.066,28.971l-3.246-5.07h-0.018v5.07h-0.957V22.41h1.045l3.193,4.992h0.018V22.41h0.957v6.561H218.066z"/>
		<path d="M227.71,24.086c-0.195-0.221-0.779-0.922-1.844-0.922c-1.365,0-2.439,1.127-2.439,2.51c0,1.41,1.135,2.545,2.422,2.545
			c0.691,0,1.338-0.338,1.791-0.869h1.18c-0.729,1.285-1.961,1.746-2.98,1.746c-1.861,0-3.369-1.57-3.369-3.432
			c0-1.914,1.543-3.377,3.379-3.377c0.496,0,1.293,0.123,2.002,0.637c0.596,0.426,0.844,0.869,1.012,1.162H227.71z"/>
		<path d="M233.587,29.096c-1.959,0-3.412-1.605-3.412-3.404c0-1.783,1.408-3.404,3.412-3.404c1.951,0,3.414,1.551,3.414,3.422
			C237.001,27.5,235.539,29.096,233.587,29.096z M233.587,23.164c-1.693,0-2.455,1.48-2.455,2.527c0,1.072,0.771,2.527,2.455,2.527
			c1.695,0,2.457-1.473,2.457-2.502C236.044,24.557,235.22,23.164,233.587,23.164z"/>
		<path d="M244.777,28.971V23.43h-0.027l-2.207,5.541h-0.576l-2.217-5.541h-0.02v5.541h-0.957V22.41h1.508l1.969,5.027l1.977-5.027
			h1.508v6.561H244.777z"/>
		<path d="M248.693,28.971h-0.957V22.41h1.898c1.568,0,2.314,0.816,2.314,1.986s-0.746,1.986-2.314,1.986h-0.941V28.971z
			 M248.693,25.504h0.941c1.09,0,1.355-0.619,1.355-1.107s-0.266-1.107-1.355-1.107h-0.941V25.504z"/>
		<path d="M256.939,28.971l-0.727-1.932h-2.357l-0.729,1.932h-1.01l2.492-6.561h0.859l2.492,6.561H256.939z M255.884,26.16
			l-0.832-2.508h-0.02l-0.842,2.508H255.884z"/>
		<path d="M263.722,28.971l-3.246-5.07h-0.018v5.07h-0.957V22.41h1.047l3.191,4.992h0.018V22.41h0.957v6.561H263.722z"/>
		<path d="M268.304,28.971v-2.367l-2.039-4.193h1.074l1.445,3.076l1.436-3.076h1.064l-2.021,4.193v2.367H268.304z"/>
	</g>
</g>
</svg>
