<?xml version="1.0" encoding="utf-8"?>
<!-- Generator: Adobe Illustrator 16.0.4, SVG Export Plug-In . SVG Version: 6.00 Build 0)  -->
<!DOCTYPE svg PUBLIC "-//W3C//DTD SVG 1.1//EN" "http://www.w3.org/Graphics/SVG/1.1/DTD/svg11.dtd">
<svg version="1.1" id="Layer_2" xmlns="http://www.w3.org/2000/svg" xmlns:xlink="http://www.w3.org/1999/xlink" x="0px" y="0px"
	 width="339.447px" height="27.854px" viewBox="0 0 339.447 27.854" enable-background="new 0 0 339.447 27.854"
	 xml:space="preserve">
<g>
	<g>
		<path fill="#FFFFFF" d="M1.988,3.771L8.38,20.984L14.8,3.77h1.988L9.175,23.969H7.614L0,3.771H1.988z"/>
		<path fill="#FFFFFF" d="M21.812,23.969V3.771H23.8v20.197H21.812z"/>
		<path fill="#FFFFFF" d="M32.833,23.969h-1.961V3.771h5.426c1.904,0,3.438,0.171,4.857,1.164c1.619,1.139,2.613,3.153,2.613,5.257
			c0,3.067-2.046,5.682-4.888,5.88l4.888,7.896H41.41l-5.994-9.744h1.902c2.614,0,4.318-1.704,4.318-4.003
			c0-1.422-0.483-2.586-1.448-3.467c-1.108-0.991-2.528-0.991-4.432-0.991h-2.925L32.833,23.969L32.833,23.969z"/>
		<path fill="#FFFFFF" d="M52.884,23.969V5.76h-4.034V3.771h10.057V5.76h-4.034v18.207L52.884,23.969L52.884,23.969z"/>
		<path fill="#FFFFFF" d="M66.232,3.771v12.356c0,0.143,0,0.285,0,0.428c0,1.362,0.029,2.501,0.511,3.521
			c0.71,1.506,2.188,2.445,3.949,2.445c3.153,0,4.487-2.16,4.487-6.394V3.771h1.961v12.84c0,5.199-2.045,7.783-6.309,7.783
			c-4.602,0-6.589-2.526-6.589-7.783V3.771H66.232z"/>
		<path fill="#FFFFFF" d="M81.624,23.969l7.84-20.197h2.387l7.811,20.197h-2.128l-2.416-6.334H86.14l-2.414,6.334H81.624z
			 M90.601,5.675l-3.778,10.142h7.613L90.601,5.675z"/>
		<path fill="#FFFFFF" d="M104.772,23.969V3.771h1.986v18.237h7.103v1.96H104.772z"/>
		<path fill="#FFFFFF" d="M119.795,3.771h6.902c4.12,0,6.25,1.789,6.25,4.971c0,2.103-0.767,3.438-2.527,4.318
			c2.329,0.709,3.465,2.215,3.465,4.658c0,1.904-0.681,3.583-1.959,4.745c-1.478,1.337-3.322,1.506-5.994,1.506h-6.138
			L119.795,3.771L119.795,3.771z M125.762,11.611c1.845,0,2.698-0.398,2.698-1.705c0-1.335-0.738-1.904-2.272-1.904h-1.62v3.608
			L125.762,11.611L125.762,11.611z M126.244,19.736c1.875,0,2.755-0.454,2.755-2.102c0-1.705-0.881-2.159-2.841-2.159h-1.591v4.261
			H126.244z"/>
		<path fill="#FFFFFF" d="M142.319,6.356c1.988-1.959,4.488-2.954,7.355-2.954c2.7,0,5.256,1.05,7.217,2.982
			c2.045,2.017,3.125,4.604,3.125,7.357c0,2.896-1.024,5.482-2.928,7.442c-1.959,2.045-4.629,3.152-7.441,3.152
			c-2.983,0-5.539-1.079-7.528-3.18c-1.904-2.019-2.869-4.519-2.869-7.5C139.251,10.873,140.33,8.317,142.319,6.356z
			 M149.647,19.337c2.896,0,5.255-2.329,5.255-5.624c0-2.955-2.358-5.312-5.2-5.312c-3.011,0-5.368,2.356-5.368,5.312
			C144.335,16.895,146.864,19.337,149.647,19.337z"/>
		<path fill="#FFFFFF" d="M168.589,23.969h-5.396l7.755-20.197h4.036l7.754,20.197h-5.455l-0.994-2.926h-6.675L168.589,23.969z
			 M172.965,10.39l-2.018,6.476h4.005L172.965,10.39z"/>
		<path fill="#FFFFFF" d="M186.736,23.969V3.771h6.707c2.128,0,3.749,0.143,5.112,1.107c1.791,1.25,2.725,3.153,2.725,5.653
			c0,3.265-1.701,5.71-4.571,6.506l4.944,6.931h-6.108l-3.862-6.505v6.505H186.736z M192.647,13.089c2.44,0,3.636-0.626,3.636-2.443
			c0-1.676-1.052-2.356-3.24-2.356h-1.36v4.8H192.647z"/>
		<path fill="#FFFFFF" d="M207.526,23.969V3.771h6.903c3.21,0,5.457,0.426,7.558,2.415c1.932,1.817,2.954,4.459,2.954,7.786
			c0,3.066-0.995,5.595-2.926,7.497c-2.158,2.103-4.062,2.5-6.903,2.5L207.526,23.969L207.526,23.969z M220.027,13.798
			c0-3.636-1.962-5.682-5.597-5.682h-1.959v11.422h1.987C218.237,19.538,220.027,17.776,220.027,13.798z"/>
		<path fill="#FFFFFF" d="M230.958,23.969V3.771h6.705c2.128,0,3.75,0.143,5.11,1.107c1.792,1.25,2.727,3.153,2.727,5.653
			c0,3.265-1.704,5.71-4.569,6.506l4.942,6.931h-6.108l-3.861-6.505v6.505H230.958z M236.867,13.089
			c2.443,0,3.638-0.626,3.638-2.443c0-1.676-1.052-2.356-3.241-2.356h-1.36v4.8H236.867z"/>
		<path fill="#FFFFFF" d="M254.02,6.356c1.988-1.959,4.487-2.954,7.358-2.954c2.698,0,5.255,1.05,7.213,2.982
			c2.046,2.017,3.128,4.604,3.128,7.357c0,2.896-1.023,5.482-2.927,7.442c-1.962,2.045-4.633,3.152-7.441,3.152
			c-2.983,0-5.539-1.079-7.531-3.18c-1.902-2.019-2.866-4.519-2.866-7.5C250.953,10.873,252.031,8.317,254.02,6.356z
			 M261.351,19.337c2.897,0,5.256-2.329,5.256-5.624c0-2.955-2.356-5.312-5.2-5.312c-3.011,0-5.367,2.356-5.367,5.312
			C256.039,16.895,258.566,19.337,261.351,19.337z"/>
		<path fill="#FFFFFF" d="M279.981,6.356c1.988-1.959,4.488-2.954,7.356-2.954c2.698,0,5.257,1.05,7.213,2.982
			c2.048,2.017,3.128,4.604,3.128,7.357c0,2.896-1.023,5.482-2.928,7.442c-1.96,2.045-4.631,3.152-7.44,3.152
			c-2.982,0-5.539-1.079-7.528-3.18c-1.903-2.019-2.867-4.519-2.867-7.5C276.913,10.873,277.992,8.317,279.981,6.356z
			 M287.309,19.337c2.896,0,5.255-2.329,5.255-5.624c0-2.955-2.357-5.312-5.198-5.312c-3.012,0-5.369,2.356-5.369,5.312
			C281.996,16.895,284.525,19.337,287.309,19.337z"/>
		<path fill="#FFFFFF" d="M303.667,23.969V3.771h6.762l3.86,12.356l3.895-12.356h6.732v20.197h-4.718V10.616l-4.175,13.352h-3.494
			l-4.178-13.352v13.352L303.667,23.969L303.667,23.969z"/>
	</g>
	<g>
		<path fill="#FFFFFF" d="M338.311,6.824c0,3.022-2.468,5.448-5.433,5.448c-3.053,0-5.463-2.466-5.463-5.448
			c0-2.964,2.396-5.446,5.463-5.446C335.9,1.377,338.311,3.844,338.311,6.824z M328.557,6.824c0,2.396,1.896,4.363,4.308,4.363
			c2.38,0,4.307-1.939,4.307-4.363c0-2.366-1.869-4.362-4.307-4.362C330.41,2.462,328.557,4.458,328.557,6.824z M333.162,3.76
			c0.387,0,2.194,0,2.194,1.697c0,0.685-0.312,1.312-1.152,1.511v0.028c0.854,0.242,1.013,0.757,1.039,1.555
			c0.059,1.056,0.059,1.185,0.198,1.439h-1.068c-0.114-0.184-0.155-0.371-0.187-1.154c-0.041-0.983-0.24-1.256-1.312-1.342h-1.268
			V9.99h-1.069V3.76H333.162z M331.609,6.497h1.283c0.442,0,1.396,0,1.396-0.998c-0.069-0.657-0.728-0.728-1.255-0.728h-1.425
			L331.609,6.497L331.609,6.497z"/>
	</g>
</g>
</svg>
