<?xml version="1.0" encoding="utf-8"?>
<!-- Generator: Adobe Illustrator 16.0.4, SVG Export Plug-In . SVG Version: 6.00 Build 0)  -->
<!DOCTYPE svg PUBLIC "-//W3C//DTD SVG 1.1//EN" "http://www.w3.org/Graphics/SVG/1.1/DTD/svg11.dtd">
<svg version="1.1" xmlns="http://www.w3.org/2000/svg" xmlns:xlink="http://www.w3.org/1999/xlink" x="0px" y="0px"
	 width="139.12px" height="25.694px" viewBox="0 0 139.12 25.694" enable-background="new 0 0 139.12 25.694" xml:space="preserve">
<g id="Layer_2" display="none">
	<g display="inline">
		<g>
			<path d="M4.055,2.092l6.854,18.457l6.883-18.457h2.132l-8.163,21.657h-1.675L1.923,2.092H4.055z"/>
			<path d="M25.311,23.749V2.092h2.132v21.657H25.311z"/>
			<path d="M37.127,23.749h-2.102V2.092h5.818c2.041,0,3.685,0.183,5.208,1.248c1.736,1.22,2.802,3.381,2.802,5.636
				c0,3.289-2.193,6.092-5.239,6.305l5.239,8.468h-2.528l-6.427-10.449h2.04c2.803,0,4.63-1.828,4.63-4.292
				c0-1.524-0.518-2.773-1.553-3.717c-1.188-1.064-2.711-1.064-4.751-1.064h-3.137V23.749z"/>
			<path d="M58.626,23.749V4.225H54.3V2.092h10.783v2.133h-4.325v19.523H58.626z"/>
			<path d="M72.938,2.092v13.249c0,0.152,0,0.305,0,0.458c0,1.461,0.031,2.681,0.548,3.775c0.761,1.615,2.346,2.622,4.234,2.622
				c3.381,0,4.812-2.316,4.812-6.855V2.092h2.102v13.767c0,5.574-2.193,8.345-6.763,8.345c-4.934,0-7.065-2.709-7.065-8.345V2.092
				H72.938z"/>
			<path d="M89.442,23.749l8.406-21.657h2.559l8.375,21.657H106.5l-2.589-6.792h-9.626l-2.588,6.792H89.442z M99.067,4.133
				l-4.051,10.873h8.163L99.067,4.133z"/>
			<path d="M114.262,23.749V2.092h2.131v19.555h7.614v2.102H114.262z"/>
			<path d="M130.371,2.092h7.4c4.418,0,6.702,1.918,6.702,5.33c0,2.255-0.822,3.686-2.71,4.63c2.497,0.76,3.716,2.375,3.716,4.995
				c0,2.041-0.731,3.84-2.101,5.087c-1.585,1.433-3.563,1.615-6.427,1.615h-6.58V2.092z M136.767,10.498
				c1.979,0,2.894-0.427,2.894-1.828c0-1.432-0.792-2.041-2.438-2.041h-1.736v3.868H136.767z M137.285,19.209
				c2.009,0,2.954-0.487,2.954-2.253c0-1.829-0.945-2.316-3.046-2.316h-1.706v4.569H137.285z"/>
		</g>
	</g>
</g>
<g id="Layer_3">
	<path fill="#030405" d="M22.696,2.092h11.852v1.962h-9.687v7.783h9.365v1.962h-9.365v7.988h9.687v1.962H22.696V2.092z"/>
	<path fill="#030405" d="M41.976,2.092h5.502c2.897,0,4.331,0.352,5.326,0.819c2.43,1.143,3.863,3.512,3.863,6.176
		c0,3.132-2.253,6.321-6.438,6.583l6.116,8.078h-2.722l-7.345-9.806c2.75,0,3.687-0.029,4.653-0.32
		c2.371-0.672,3.57-2.663,3.57-4.594c0-1.698-0.966-3.453-2.371-4.155c-1.288-0.674-2.399-0.819-4.214-0.819h-3.775v19.695h-2.166
		V2.092z"/>
	<path fill="#030405" d="M63.51,2.092h2.165v21.657H63.51V2.092z"/>
	<path fill="#030405" d="M71.731,2.092h2.4l7.638,18.963l7.666-18.963h2.341l-8.983,21.657h-2.136L71.731,2.092z"/>
	<path fill="#030405" d="M102.253,2.092h2.429l9.307,21.657h-2.371l-3.131-7.286H98.419l-3.16,7.286h-2.253L102.253,2.092z
		 M99.239,14.5h8.399l-4.155-9.949L99.239,14.5z"/>
	<path fill="#030405" d="M120.098,2.092h2.927l12.085,17.97h0.06V2.092h2.167v21.657h-2.167L122.322,4.697h-0.058v19.052h-2.167
		V2.092z"/>
	<path fill="#030405" d="M13.541,3.35c-1.2-0.789-2.604-1.258-5.59-1.258H1.923v21.657h2.165v-8.183H4.084v-2.861h0.004v-8.65H7.22
		c2.312,0,3.103,0,4.331,0.555c1.698,0.792,2.517,2.312,2.517,3.952c0,1.638-0.819,3.16-2.517,3.95
		c-1.229,0.555-2.019,0.555-4.331,0.555H3.516v1.962h4.436c2.985,0,4.39-0.469,5.59-1.259c1.61-1.082,2.692-2.926,2.692-5.208
		C16.233,6.278,15.151,4.434,13.541,3.35z"/>
</g>
</svg>
