<?xml version="1.0" encoding="utf-8"?>
<!-- Generator: Adobe Illustrator 16.0.4, SVG Export Plug-In . SVG Version: 6.00 Build 0)  -->
<!DOCTYPE svg PUBLIC "-//W3C//DTD SVG 1.1//EN" "http://www.w3.org/Graphics/SVG/1.1/DTD/svg11.dtd">
<svg version="1.1" id="DESIGN" xmlns="http://www.w3.org/2000/svg" xmlns:xlink="http://www.w3.org/1999/xlink" x="0px" y="0px"
	 width="276.667px" height="30.476px" viewBox="0 0 276.667 30.476" enable-background="new 0 0 276.667 30.476"
	 xml:space="preserve">
<g>
	<path d="M16.914,3.343h8.953v1.481h-7.317v5.881h7.074v1.481h-7.074v6.034h7.317v1.482h-8.953V3.343z"/>
	<path d="M31.479,3.343h4.156c2.188,0,3.271,0.266,4.023,0.619c1.835,0.862,2.918,2.653,2.918,4.665
		c0,2.365-1.702,4.775-4.864,4.974l4.621,6.102h-2.057l-5.549-7.407c2.078,0,2.786-0.022,3.516-0.242
		c1.791-0.509,2.696-2.013,2.696-3.472c0-1.282-0.729-2.609-1.79-3.139c-0.973-0.508-1.812-0.619-3.184-0.619h-2.852v14.879h-1.636
		V3.343z"/>
	<path d="M47.746,3.343h1.636v16.36h-1.636V3.343z"/>
	<path d="M53.956,3.343h1.812l5.771,14.325L67.33,3.343h1.769l-6.786,16.36h-1.614L53.956,3.343z"/>
	<path d="M77.013,3.343h1.835l7.03,16.36h-1.791l-2.365-5.504h-7.605l-2.387,5.504h-1.702L77.013,3.343z M74.736,12.716h6.345
		L77.941,5.2L74.736,12.716z"/>
	<path d="M90.494,3.343h2.21l9.131,13.573h0.044V3.343h1.636v16.36h-1.636L92.173,5.311h-0.044v14.393h-1.636V3.343z"/>
	<path d="M109.167,3.343h5.418c1.834,0,5.105,0,7.229,3.051c1.127,1.548,1.504,3.294,1.504,5.084c0,4.465-2.211,8.225-8.424,8.225
		h-5.727V3.343z M113.347,16.033h1.791c3.117,0,4-2.167,4-4.488c0-0.928-0.197-2.1-0.795-3.028
		c-0.486-0.729-1.326-1.503-3.184-1.503h-1.812V16.033z"/>
	<path d="M128.509,3.343h9.084v3.67h-5.084v2.542h4.93v3.67h-4.93v2.808h5.084v3.67h-9.084V3.343z"/>
	<path d="M149.306,8.118c-0.088-0.553-0.219-1.591-1.504-1.591c-0.729,0-1.438,0.508-1.438,1.282c0,0.972,0.445,1.171,3.385,2.498
		c3.051,1.371,3.824,2.786,3.824,4.687c0,2.387-1.371,5.018-5.705,5.018c-4.729,0-5.9-3.096-5.9-5.196v-0.529h4.156
		c0,1.9,1.17,2.232,1.701,2.232c0.994,0,1.592-0.818,1.592-1.569c0-1.084-0.686-1.349-3.205-2.41
		c-1.15-0.464-4.002-1.615-4.002-4.687c0-3.073,2.984-4.819,5.725-4.819c1.615,0,3.361,0.597,4.422,1.856
		c0.973,1.194,1.041,2.299,1.084,3.228H149.306z"/>
	<path d="M158.279,3.343h4.178v16.36h-4.178V3.343z"/>
	<path d="M184.826,10.395c0.021,0.288,0.021,0.53,0.021,0.863c0,5.482-4.199,8.777-8.732,8.777c-4.951,0-8.688-3.87-8.688-8.579
		c0-4.886,3.936-8.422,8.756-8.422c3.912,0,7.271,2.63,8.18,5.792h-4.688c-0.643-1.149-1.834-2.123-3.604-2.123
		c-2.057,0-4.467,1.525-4.467,4.753c0,3.426,2.434,4.908,4.488,4.908c2.078,0,3.471-1.04,3.914-2.632h-4.887v-3.338H184.826z"/>
	<path d="M189.728,3.343h3.604l6.322,10.28l0.045-0.044l-0.176-10.236h4v16.36h-3.625l-6.234-9.949l-0.045,0.022l0.111,9.927h-4.002
		V3.343z"/>
	<path d="M9.999,4.294C9.092,3.697,8.031,3.343,5.776,3.343H1.222v16.36h1.636v-6.181v-0.407v-1.482v-0.271V4.824h2.365
		c1.747,0,2.344,0,3.271,0.42c1.283,0.597,1.901,1.747,1.901,2.984c0,1.238-0.618,2.388-1.901,2.985
		c-0.928,0.419-1.524,0.419-3.271,0.419H2.73v1.482h3.046c2.255,0,3.316-0.354,4.223-0.951c1.216-0.818,2.033-2.21,2.033-3.936
		C12.032,6.504,11.214,5.112,9.999,4.294z"/>
</g>
</svg>
