<?xml version="1.0" encoding="utf-8"?>
<!-- Generator: Adobe Illustrator 16.0.4, SVG Export Plug-In . SVG Version: 6.00 Build 0)  -->
<!DOCTYPE svg PUBLIC "-//W3C//DTD SVG 1.1//EN" "http://www.w3.org/Graphics/SVG/1.1/DTD/svg11.dtd">
<svg version="1.1" id="SOLUTIONS" xmlns="http://www.w3.org/2000/svg" xmlns:xlink="http://www.w3.org/1999/xlink" x="0px" y="0px"
	 width="276.667px" height="30.476px" viewBox="0 0 276.667 30.476" enable-background="new 0 0 276.667 30.476"
	 xml:space="preserve">
<g>
	<path d="M16.934,3.343h8.964v1.484h-7.327v5.888h7.083v1.483h-7.083v6.043h7.327v1.482h-8.964V3.343z"/>
	<path d="M31.518,3.343h4.162c2.191,0,3.275,0.267,4.028,0.62c1.837,0.864,2.922,2.656,2.922,4.671c0,2.369-1.704,4.781-4.87,4.98
		l4.626,6.11h-2.059l-5.556-7.416c2.081,0,2.789-0.022,3.52-0.243c1.793-0.509,2.7-2.015,2.7-3.476c0-1.283-0.73-2.612-1.792-3.143
		c-0.975-0.509-1.815-0.62-3.188-0.62h-2.855v14.897h-1.638V3.343z"/>
	<path d="M47.805,3.343h1.638v16.381h-1.638V3.343z"/>
	<path d="M54.023,3.343h1.815l5.777,14.344l5.798-14.344h1.771L62.39,19.725h-1.616L54.023,3.343z"/>
	<path d="M77.11,3.343h1.837l7.039,16.381h-1.793l-2.368-5.512H74.21l-2.391,5.512h-1.704L77.11,3.343z M74.83,12.729h6.353
		l-3.144-7.526L74.83,12.729z"/>
	<path d="M90.607,3.343h2.213l9.142,13.592h0.044V3.343h1.638v16.381h-1.638L92.29,5.314h-0.044v14.411h-1.638V3.343z"/>
	<path d="M115.947,8.125c-0.089-0.554-0.221-1.594-1.505-1.594c-0.73,0-1.439,0.509-1.439,1.284c0,0.973,0.443,1.173,3.387,2.501
		c3.054,1.372,3.829,2.789,3.829,4.693c0,2.391-1.372,5.026-5.71,5.026c-4.736,0-5.91-3.1-5.91-5.204V14.3h4.162
		c0,1.904,1.173,2.236,1.704,2.236c0.996,0,1.593-0.818,1.593-1.571c0-1.085-0.686-1.351-3.209-2.413
		c-1.151-0.465-4.007-1.616-4.007-4.692s2.989-4.826,5.733-4.826c1.616,0,3.365,0.597,4.428,1.86
		c0.975,1.194,1.041,2.302,1.085,3.231H115.947z"/>
	<path d="M132.854,3.034c5.047,0,8.654,3.939,8.654,8.5c0,4.559-3.583,8.501-8.675,8.501c-5.157,0-8.611-4.096-8.611-8.303
		c0-1.083,0.155-2.301,0.643-3.497C125.726,6.111,128.272,3.034,132.854,3.034z M132.92,16.36c2.967,0,4.404-2.7,4.404-4.803
		c0-2.125-1.438-4.849-4.449-4.849c-2.899,0-4.469,2.48-4.469,4.782C128.406,14.013,130.109,16.36,132.92,16.36z"/>
	<path d="M146.593,3.343h4.186V16.05h4.846v3.674h-9.031V3.343z"/>
	<path d="M164.121,3.343v9.895c0,1.107,0.068,3.122,2.127,3.122c2.08,0,2.08-1.815,2.08-3.122V3.343h4.184v9.895
		c0,2.746-0.598,3.963-1.639,5.026c-1.062,1.084-2.545,1.771-4.58,1.771c-1.197,0-3.365-0.289-4.717-1.75
		c-1.35-1.482-1.639-2.634-1.639-5.047V3.343H164.121z"/>
	<path d="M180.123,7.018h-3.232V3.343h10.625v3.675h-3.209v12.707h-4.184V7.018z"/>
	<path d="M191.916,3.343h4.184v16.381h-4.184V3.343z"/>
	<path d="M209.71,3.034c5.047,0,8.654,3.939,8.654,8.5c0,4.559-3.584,8.501-8.676,8.501c-5.158,0-8.611-4.096-8.611-8.303
		c0-1.083,0.154-2.301,0.643-3.497C202.583,6.111,205.128,3.034,209.71,3.034z M209.777,16.36c2.965,0,4.404-2.7,4.404-4.803
		c0-2.125-1.439-4.849-4.449-4.849c-2.898,0-4.469,2.48-4.469,4.782C205.263,14.013,206.964,16.36,209.777,16.36z"/>
	<path d="M223.339,3.343h3.609l6.33,10.294l0.045-0.044l-0.178-10.25h4.006v16.381h-3.629l-6.242-9.962l-0.045,0.022l0.111,9.939
		h-4.008V3.343z"/>
	<path d="M249.277,8.125c-0.088-0.554-0.221-1.594-1.506-1.594c-0.73,0-1.438,0.509-1.438,1.284c0,0.973,0.441,1.173,3.387,2.501
		c3.055,1.372,3.828,2.789,3.828,4.693c0,2.391-1.371,5.026-5.711,5.026c-4.736,0-5.908-3.1-5.908-5.204V14.3h4.16
		c0,1.904,1.174,2.236,1.703,2.236c0.998,0,1.594-0.818,1.594-1.571c0-1.085-0.686-1.351-3.209-2.413
		c-1.152-0.465-4.006-1.616-4.006-4.692s2.988-4.826,5.732-4.826c1.615,0,3.365,0.597,4.428,1.86
		c0.975,1.194,1.041,2.302,1.086,3.231H249.277z"/>
	<path d="M10.009,4.296C9.103,3.698,8.04,3.343,5.782,3.343h-4.56v16.381H2.86v-6.597h0v-1.483h0V4.827h2.368
		c1.75,0,2.347,0,3.276,0.42c1.284,0.598,1.904,1.75,1.904,2.988c0,1.239-0.62,2.391-1.904,2.988c-0.929,0.42-1.526,0.42-3.276,0.42
		H2.709v1.483h3.072c2.258,0,3.321-0.354,4.228-0.951c1.218-0.819,2.037-2.214,2.037-3.941C12.046,6.509,11.228,5.115,10.009,4.296z
		"/>
</g>
</svg>
