<?xml version="1.0" encoding="utf-8"?>
<!-- Generator: Adobe Illustrator 16.0.4, SVG Export Plug-In . SVG Version: 6.00 Build 0)  -->
<!DOCTYPE svg PUBLIC "-//W3C//DTD SVG 1.1//EN" "http://www.w3.org/Graphics/SVG/1.1/DTD/svg11.dtd">
<svg version="1.1" id="FINANCIAL_DOC_SOL" xmlns="http://www.w3.org/2000/svg" xmlns:xlink="http://www.w3.org/1999/xlink" x="0px"
	 y="0px" width="276.667px" height="30.476px" viewBox="0 0 276.667 30.476" enable-background="new 0 0 276.667 30.476"
	 xml:space="preserve">
<g>
	<g>
		<path d="M17.123,3.324h9.072v1.501H18.78v5.958h7.168v1.501H18.78v6.114h7.415V19.9h-9.072V3.324z"/>
		<path d="M31.88,3.324h4.212c2.218,0,3.315,0.27,4.076,0.627c1.86,0.875,2.957,2.688,2.957,4.728c0,2.396-1.724,4.838-4.928,5.04
			l4.682,6.182h-2.083l-5.623-7.505c2.105,0,2.822-0.022,3.562-0.245c1.815-0.515,2.733-2.039,2.733-3.517
			c0-1.3-0.739-2.643-1.814-3.181c-0.985-0.516-1.837-0.627-3.226-0.627h-2.89V19.9H31.88V3.324z"/>
		<path d="M48.364,3.324h1.657V19.9h-1.657V3.324z"/>
		<path d="M54.657,3.324h1.837l5.846,14.516l5.868-14.516H70L63.124,19.9h-1.636L54.657,3.324z"/>
		<path d="M78.02,3.324h1.859L87.003,19.9h-1.815l-2.396-5.577h-7.706L72.667,19.9h-1.725L78.02,3.324z M75.712,12.821h6.43
			L78.96,5.206L75.712,12.821z"/>
		<path d="M91.679,3.324h2.24l9.251,13.754h0.045V3.324h1.658V19.9h-1.658L93.382,5.317h-0.045V19.9h-1.658V3.324z"/>
		<g>
			<path d="M110.827,3.324h9.05v3.718h-4.996v2.822h4.817v3.719h-4.817V19.9h-4.054V3.324z"/>
			<path d="M124.914,3.324h4.234V19.9h-4.234V3.324z"/>
			<path d="M134.901,3.324h3.65l6.409,10.417l0.045-0.045l-0.18-10.372h4.055V19.9h-3.674l-6.319-10.081l-0.043,0.022l0.111,10.059
				h-4.055V3.324z"/>
			<path d="M158.775,17.504l-0.873,2.396h-4.547l6.652-16.577h3.34l6.584,16.577h-4.592l-0.807-2.396H158.775z M159.941,14.144
				h3.473l-1.703-5.668h-0.023h-0.043L159.941,14.144z"/>
			<path d="M174.384,3.324h3.65l6.408,10.417l0.043-0.045l-0.178-10.372h4.055V19.9h-3.674l-6.318-10.081l-0.045,0.022l0.113,10.059
				h-4.055V3.324z"/>
			<path d="M210.578,13.695c-0.963,3.92-4.367,6.52-8.377,6.52c-5.195,0-8.736-4.145-8.736-8.625c0-4.235,3.271-8.579,8.691-8.579
				c5.197,0,7.975,4.009,8.422,6.606h-4.434c-0.471-1.231-1.727-2.889-4.01-2.889c-2.846,0-4.438,2.486-4.438,4.839
				c0,2.508,1.703,4.927,4.459,4.927c2.643,0,3.719-2.216,3.988-2.799H210.578z"/>
			<path d="M215.523,3.324h4.234V19.9h-4.234V3.324z"/>
			<path d="M229.632,17.504l-0.873,2.396h-4.547l6.652-16.577h3.338l6.586,16.577h-4.592l-0.807-2.396H229.632z M230.798,14.144
				h3.471l-1.701-5.668h-0.023H232.5L230.798,14.144z"/>
			<path d="M245.353,3.324h4.234v12.858h4.904V19.9h-9.139V3.324z"/>
		</g>
		<path d="M10.115,4.287C9.197,3.683,8.122,3.324,5.836,3.324H1.222V19.9h1.657v-6.264H2.876v-2.19h0.003V4.825h2.396
			c1.771,0,2.375,0,3.315,0.425c1.3,0.606,1.927,1.77,1.927,3.025c0,1.253-0.627,2.419-1.927,3.023
			c-0.94,0.426-1.545,0.426-3.315,0.426H2.441v1.501h3.396c2.285,0,3.36-0.359,4.278-0.963c1.232-0.829,2.061-2.24,2.061-3.987
			C12.175,6.528,11.347,5.116,10.115,4.287z"/>
	</g>
	<g>
		<path d="M147.832,22.439h2.092c1.342,0,2.145,0.514,2.633,1.186c0.461,0.645,0.662,1.43,0.662,2.057
			c0,0.871-0.332,1.805-0.811,2.275c-0.742,0.732-1.613,0.932-2.52,0.932h-2.057V22.439z M148.773,28.027h1.125
			c1.133,0,2.379-0.566,2.379-2.346c0-0.977-0.602-2.379-2.363-2.379h-1.141V28.027z"/>
		<path d="M157.984,29.012c-1.926,0-3.355-1.578-3.355-3.348c0-1.752,1.385-3.348,3.355-3.348c1.918,0,3.355,1.525,3.355,3.365
			C161.339,27.443,159.902,29.012,157.984,29.012z M157.984,23.18c-1.666,0-2.414,1.457-2.414,2.484
			c0,1.055,0.758,2.484,2.414,2.484c1.666,0,2.414-1.447,2.414-2.459C160.398,24.549,159.587,23.18,157.984,23.18z"/>
		<path d="M167.806,24.086c-0.193-0.217-0.768-0.906-1.814-0.906c-1.342,0-2.396,1.107-2.396,2.467c0,1.387,1.115,2.502,2.379,2.502
			c0.68,0,1.316-0.332,1.762-0.854h1.16c-0.717,1.264-1.928,1.717-2.93,1.717c-1.83,0-3.312-1.543-3.312-3.373
			c0-1.883,1.518-3.322,3.32-3.322c0.488,0,1.273,0.123,1.971,0.627c0.584,0.42,0.828,0.855,0.994,1.143H167.806z"/>
		<path d="M174.751,26.807c0,0.732-0.244,1.264-0.654,1.656c-0.4,0.33-0.916,0.549-1.508,0.549c-0.594,0-1.107-0.219-1.508-0.549
			c-0.41-0.393-0.654-0.924-0.654-1.656v-4.367h0.941v4.34c0,1.195,0.871,1.369,1.221,1.369c0.348,0,1.221-0.174,1.221-1.369v-4.34
			h0.941V26.807z"/>
		<path d="M182.603,28.889v-5.447h-0.025l-2.172,5.447h-0.566l-2.18-5.447h-0.018v5.447h-0.939v-6.449h1.48l1.936,4.941l1.943-4.941
			h1.482v6.449H182.603z"/>
		<path d="M185.406,28.889v-6.449h3.479v0.863h-2.535v1.9h2.535v0.861h-2.535v1.963h2.535v0.861H185.406z"/>
		<path d="M194.828,28.889l-3.189-4.984h-0.018v4.984h-0.941v-6.449h1.027l3.139,4.908h0.018v-4.908h0.941v6.449H194.828z"/>
		<path d="M198.41,28.889v-5.586h-1.238v-0.863h3.416v0.863h-1.238v5.586H198.41z"/>
		<path d="M205.476,26.98c0,0.219,0.096,1.168,1.047,1.168c0.592,0,1.037-0.41,1.037-1.09c0-0.723-0.594-0.881-1.037-1.055
			c-0.865-0.33-1.074-0.436-1.369-0.723c-0.297-0.289-0.438-0.76-0.438-1.213c0-0.75,0.586-1.752,1.807-1.752
			c1.07,0,1.848,0.707,1.848,1.797h-0.941c0-0.717-0.523-0.934-0.906-0.934c-0.559,0-0.865,0.506-0.865,0.881
			c0,0.619,0.586,0.783,0.865,0.889c0.809,0.305,1.979,0.559,1.979,2.109c0,1.125-0.793,1.953-1.979,1.953
			c-0.891,0-1.988-0.594-1.988-2.031H205.476z"/>
		<path d="M213.066,29.012c-1.926,0-3.355-1.578-3.355-3.348c0-1.752,1.387-3.348,3.355-3.348c1.92,0,3.357,1.525,3.357,3.365
			C216.423,27.443,214.986,29.012,213.066,29.012z M213.066,23.18c-1.664,0-2.414,1.457-2.414,2.484c0,1.055,0.76,2.484,2.414,2.484
			c1.666,0,2.416-1.447,2.416-2.459C215.482,24.549,214.671,23.18,213.066,23.18z"/>
		<path d="M218.093,28.889v-6.449h0.941v5.588h2.24v0.861H218.093z"/>
		<path d="M226.888,26.807c0,0.732-0.244,1.264-0.654,1.656c-0.4,0.33-0.916,0.549-1.508,0.549c-0.594,0-1.107-0.219-1.508-0.549
			c-0.41-0.393-0.654-0.924-0.654-1.656v-4.367h0.941v4.34c0,1.195,0.873,1.369,1.221,1.369c0.35,0,1.221-0.174,1.221-1.369v-4.34
			h0.941V26.807z"/>
		<path d="M229.484,28.889v-5.586h-1.238v-0.863h3.418v0.863h-1.238v5.586H229.484z"/>
		<path d="M233.039,28.889v-6.449h0.941v6.449H233.039z"/>
		<path d="M238.964,29.012c-1.926,0-3.355-1.578-3.355-3.348c0-1.752,1.387-3.348,3.355-3.348c1.918,0,3.357,1.525,3.357,3.365
			C242.322,27.443,240.882,29.012,238.964,29.012z M238.964,23.18c-1.664,0-2.414,1.457-2.414,2.484c0,1.055,0.76,2.484,2.414,2.484
			c1.666,0,2.416-1.447,2.416-2.459C241.38,24.549,240.57,23.18,238.964,23.18z"/>
		<path d="M248.107,28.889l-3.191-4.984h-0.018v4.984h-0.941v-6.449h1.029l3.139,4.908h0.018v-4.908h0.941v6.449H248.107z"/>
		<path d="M251.488,26.98c0,0.219,0.096,1.168,1.045,1.168c0.594,0,1.037-0.41,1.037-1.09c0-0.723-0.592-0.881-1.037-1.055
			c-0.863-0.33-1.072-0.436-1.369-0.723c-0.295-0.289-0.436-0.76-0.436-1.213c0-0.75,0.584-1.752,1.805-1.752
			c1.072,0,1.848,0.707,1.848,1.797h-0.941c0-0.717-0.523-0.934-0.906-0.934c-0.557,0-0.863,0.506-0.863,0.881
			c0,0.619,0.584,0.783,0.863,0.889c0.811,0.305,1.979,0.559,1.979,2.109c0,1.125-0.793,1.953-1.979,1.953
			c-0.889,0-1.988-0.594-1.988-2.031H251.488z"/>
	</g>
</g>
</svg>
