<?xml version="1.0" encoding="utf-8"?>
<!-- Generator: Adobe Illustrator 16.0.4, SVG Export Plug-In . SVG Version: 6.00 Build 0)  -->
<!DOCTYPE svg PUBLIC "-//W3C//DTD SVG 1.1//EN" "http://www.w3.org/Graphics/SVG/1.1/DTD/svg11.dtd">
<svg version="1.1" id="financial_pod" xmlns="http://www.w3.org/2000/svg" xmlns:xlink="http://www.w3.org/1999/xlink" x="0px"
	 y="0px" width="363.817px" height="41.436px" viewBox="0 0 363.817 41.436" enable-background="new 0 0 363.817 41.436"
	 xml:space="preserve">
<g>
	<g>
		<path d="M21.085,3.956h11.889v1.969h-9.718v7.809h9.395v1.968h-9.395v8.012h9.718v1.968H21.085V3.956z"/>
		<path d="M40.425,3.956h5.519c2.907,0,4.345,0.354,5.343,0.823c2.436,1.146,3.875,3.522,3.875,6.195
			c0,3.142-2.261,6.34-6.458,6.605l6.135,8.102H52.11l-7.368-9.836c2.759,0,3.699-0.028,4.668-0.321
			c2.378-0.675,3.583-2.672,3.583-4.609c0-1.703-0.969-3.466-2.378-4.168c-1.292-0.677-2.405-0.822-4.227-0.822H42.6v19.756h-2.172
			V3.956H40.425z"/>
		<path d="M62.027,3.956h2.171v21.726h-2.171V3.956z"/>
		<path d="M70.272,3.956h2.408l7.663,19.024l7.69-19.024h2.349L81.37,25.682h-2.143L70.272,3.956z"/>
		<path d="M100.893,3.956h2.436l9.336,21.726h-2.379l-3.14-7.307h-10.1l-3.168,7.307h-2.261L100.893,3.956z M97.867,16.404h8.427
			l-4.17-9.979L97.867,16.404z"/>
		<path d="M118.794,3.956h2.934l12.125,18.027h0.059V3.956h2.173v21.726h-2.173L121.023,6.57h-0.059v19.111h-2.171V3.956z"/>
		<g>
			<path d="M143.886,3.956h11.859v4.875h-6.547v3.697h6.311v4.875h-6.311v8.278h-5.312L143.886,3.956L143.886,3.956z"/>
			<path d="M162.347,3.956h5.549v21.726h-5.549V3.956z"/>
			<path d="M175.435,3.956h4.784l8.399,13.651l0.059-0.059l-0.235-13.593h5.313v21.726h-4.814l-8.28-13.212l-0.059,0.029
				l0.146,13.182h-5.313L175.435,3.956L175.435,3.956z"/>
			<path d="M206.723,22.54l-1.146,3.141h-5.958l8.719-21.726h4.376l8.629,21.726h-6.019l-1.056-3.141H206.723z M208.25,18.138h4.551
				l-2.231-7.427h-0.029h-0.057L208.25,18.138z"/>
			<path d="M227.178,3.956h4.785l8.377,13.651l0.06-0.059l-0.236-13.593h5.314v21.726h-4.815l-8.26-13.212l-0.059,0.029
				l0.147,13.182h-5.315V3.956H227.178z"/>
			<path d="M274.593,17.549c-1.262,5.137-5.724,8.544-10.979,8.544c-6.809,0-11.449-5.432-11.449-11.302
				c0-5.551,4.288-11.243,11.391-11.243c6.811,0,10.45,5.253,11.037,8.658h-5.811c-0.617-1.612-2.263-3.787-5.255-3.787
				c-3.729,0-5.815,3.258-5.815,6.341c0,3.288,2.229,6.458,5.841,6.458c3.469,0,4.876-2.905,5.227-3.669H274.593z"/>
			<path d="M281.075,3.956h5.548v21.726h-5.548V3.956z"/>
			<path d="M299.564,22.54l-1.144,3.141h-5.959l8.716-21.726h4.377l8.63,21.726h-6.02l-1.057-3.141H299.564z M301.093,18.138h4.548
				l-2.229-7.427h-0.031h-0.059L301.093,18.138z"/>
			<path d="M320.169,3.956h5.546v16.853h6.428v4.873h-11.976V3.956H320.169z"/>
		</g>
		<path d="M11.901,5.221c-1.203-0.792-2.612-1.265-5.608-1.265H0.247v21.726h2.172v-8.208H2.414v-2.871h0.005V5.926h3.14
			c2.32,0,3.113,0,4.344,0.557c1.704,0.793,2.524,2.319,2.524,3.964c0,1.642-0.82,3.17-2.524,3.962
			c-1.231,0.558-2.024,0.558-4.344,0.558H1.844v1.967h4.449c2.995,0,4.403-0.47,5.606-1.262c1.615-1.086,2.701-2.936,2.701-5.225
			C14.602,8.156,13.516,6.307,11.901,5.221z"/>
	</g>
	<g>
		<path d="M215.466,40.14h-1.281v-8.76h2.531c2.1,0,3.095,1.091,3.095,2.652s-0.995,2.651-3.095,2.651h-1.25V40.14L215.466,40.14z
			 M215.466,35.512h1.25c1.46,0,1.813-0.828,1.813-1.479c0-0.652-0.354-1.48-1.813-1.48h-1.25V35.512z"/>
		<path d="M225.878,40.14l-2.888-4.061h-0.024v4.061h-1.277v-8.76h2.71c1.23,0,1.87,0.298,2.331,0.734
			c0.559,0.534,0.807,1.337,0.807,2.071c0,2.32-1.941,2.687-2.509,2.687l2.45,3.268H225.878z M222.967,35.902h0.873
			c0.524,0,2.418-0.023,2.418-1.716c0-0.734-0.495-1.634-1.941-1.634h-1.35V35.902L222.967,35.902z"/>
		<path d="M229.724,40.14v-8.76h1.277v8.76H229.724z"/>
		<path d="M239.269,40.14l-4.313-6.771h-0.024v6.771h-1.278v-8.76h1.399l4.242,6.665h0.021V31.38h1.278v8.76H239.269z"/>
		<path d="M244.129,40.14v-7.588h-1.679V31.38h4.639v1.172h-1.682v7.588H244.129z"/>
		<path d="M257.243,40.306c-2.615,0-4.557-2.142-4.557-4.546c0-2.38,1.883-4.547,4.557-4.547c2.604,0,4.56,2.073,4.56,4.57
			C261.802,38.175,259.847,40.306,257.243,40.306z M257.243,32.386c-2.26,0-3.278,1.977-3.278,3.374
			c0,1.434,1.028,3.374,3.278,3.374c2.264,0,3.281-1.966,3.281-3.34C260.524,34.244,259.423,32.386,257.243,32.386z"/>
		<path d="M269.659,40.14l-4.334-6.771h-0.021v6.771h-1.277v-8.76h1.395l4.263,6.665h0.023V31.38h1.278v8.76H269.659z"/>
		<path d="M277.693,31.38h2.841c1.821,0,2.912,0.7,3.575,1.609c0.629,0.878,0.898,1.942,0.898,2.797
			c0,1.184-0.451,2.448-1.101,3.089c-1.005,0.993-2.19,1.266-3.423,1.266h-2.794V31.38H277.693z M278.971,38.968h1.528
			c1.537,0,3.229-0.769,3.229-3.183c0-1.327-0.816-3.233-3.208-3.233h-1.55V38.968L278.971,38.968z"/>
		<path d="M287.241,40.14v-8.76h4.725v1.172h-3.443v2.58h3.443v1.172h-3.443v2.663h3.443v1.172L287.241,40.14L287.241,40.14z"/>
		<path d="M302.416,40.14v-7.396h-0.035l-2.949,7.396h-0.77l-2.959-7.396h-0.022v7.396h-1.277v-8.76h2.011l2.628,6.712l2.643-6.712
			h2.007v8.76H302.416z"/>
		<path d="M312.048,40.14l-0.97-2.58h-3.149l-0.971,2.58h-1.351l3.326-8.76h1.149l3.325,8.76H312.048z M310.641,36.386l-1.114-3.349
			h-0.024l-1.125,3.349H310.641z"/>
		<path d="M320.958,40.14l-4.331-6.771h-0.022v6.771h-1.28v-8.76h1.398l4.262,6.665h0.021V31.38h1.279v8.76H320.958z"/>
		<path d="M324.829,31.38h2.84c1.822,0,2.913,0.7,3.575,1.609c0.626,0.878,0.899,1.942,0.899,2.797c0,1.184-0.452,2.448-1.101,3.089
			c-1.007,0.993-2.191,1.266-3.424,1.266h-2.793V31.38H324.829z M326.107,38.968h1.525c1.539,0,3.232-0.769,3.232-3.183
			c0-1.327-0.816-3.233-3.21-3.233h-1.548V38.968L326.107,38.968z"/>
	</g>
</g>
</svg>
