<?xml version="1.0" encoding="utf-8"?>
<!-- Generator: Adobe Illustrator 16.0.4, SVG Export Plug-In . SVG Version: 6.00 Build 0)  -->
<!DOCTYPE svg PUBLIC "-//W3C//DTD SVG 1.1//EN" "http://www.w3.org/Graphics/SVG/1.1/DTD/svg11.dtd">
<svg version="1.1" id="marketing_store" xmlns="http://www.w3.org/2000/svg" xmlns:xlink="http://www.w3.org/1999/xlink" x="0px"
	 y="0px" width="289.409px" height="41.436px" viewBox="0 0 289.409 41.436" enable-background="new 0 0 289.409 41.436"
	 xml:space="preserve">
<g>
	<path d="M167.65,40.168l-0.974-2.588h-3.157l-0.974,2.588h-1.353l3.334-8.786h1.153l3.336,8.786H167.65z M166.239,36.405
		l-1.117-3.358h-0.023l-1.13,3.358H166.239z"/>
	<path d="M173.613,40.168h-1.281v-8.786h2.54c2.102,0,3.098,1.092,3.098,2.661c0,1.567-0.996,2.659-3.098,2.659h-1.259V40.168z
		 M173.613,35.527h1.259c1.461,0,1.817-0.832,1.817-1.483c0-0.652-0.355-1.485-1.817-1.485h-1.259V35.527z"/>
	<path d="M179.856,40.168v-8.786h4.738v1.176h-3.456v2.59h3.456v1.173h-3.456v2.673h3.456v1.175H179.856z"/>
	<path d="M191.121,40.168l-2.897-4.071H188.2v4.071h-1.284v-8.786h2.719c1.236,0,1.878,0.299,2.341,0.736
		c0.558,0.534,0.807,1.343,0.807,2.079c0,2.326-1.946,2.694-2.517,2.694l2.458,3.276H191.121z M188.2,35.916h0.879
		c0.522,0,2.422-0.023,2.422-1.719c0-0.736-0.499-1.64-1.947-1.64H188.2V35.916z"/>
	<path d="M194.974,40.168v-8.786h1.284v8.786H194.974z"/>
	<path d="M201.705,40.168l-3.537-8.786h1.377l2.553,6.59l2.554-6.59h1.353l-3.527,8.786H201.705z"/>
	<path d="M212.437,40.168l-0.974-2.588h-3.159l-0.974,2.588h-1.353l3.335-8.786h1.152l3.337,8.786H212.437z M211.024,36.405
		l-1.115-3.358h-0.025l-1.128,3.358H211.024z"/>
	<path d="M221.373,40.168l-4.345-6.791h-0.023v6.791h-1.283v-8.786h1.399l4.277,6.686h0.022v-6.686h1.281v8.786H221.373z"/>
	<path d="M228.377,37.569c0,0.299,0.131,1.591,1.425,1.591c0.807,0,1.412-0.557,1.412-1.484c0-0.985-0.807-1.198-1.412-1.437
		c-1.175-0.45-1.46-0.593-1.863-0.985c-0.404-0.391-0.594-1.032-0.594-1.649c0-1.021,0.795-2.388,2.457-2.388
		c1.46,0,2.519,0.962,2.519,2.445h-1.284c0-0.972-0.71-1.271-1.234-1.271c-0.76,0-1.175,0.689-1.175,1.199
		c0,0.845,0.797,1.07,1.175,1.213c1.105,0.415,2.694,0.759,2.694,2.872c0,1.531-1.078,2.659-2.694,2.659
		c-1.211,0-2.707-0.807-2.707-2.766H228.377z"/>
	<path d="M238.716,40.334c-2.624,0-4.57-2.147-4.57-4.558c0-2.386,1.887-4.561,4.57-4.561c2.612,0,4.569,2.079,4.569,4.584
		C243.286,38.198,241.329,40.334,238.716,40.334z M238.716,32.391c-2.268,0-3.289,1.984-3.289,3.386
		c0,1.437,1.033,3.383,3.289,3.383c2.267,0,3.287-1.971,3.287-3.348C242.003,34.255,240.9,32.391,238.716,32.391z"/>
	<path d="M245.561,40.168v-8.786h1.282v7.611h3.051v1.175H245.561z"/>
	<path d="M257.54,37.331c0,0.996-0.332,1.723-0.891,2.255c-0.547,0.451-1.247,0.748-2.055,0.748c-0.807,0-1.508-0.297-2.056-0.748
		c-0.558-0.532-0.889-1.259-0.889-2.255v-5.949h1.282v5.913c0,1.626,1.188,1.864,1.662,1.864s1.662-0.238,1.662-1.864v-5.913h1.283
		V37.331z"/>
	<path d="M261.073,40.168v-7.61h-1.687v-1.176h4.653v1.176h-1.685v7.61H261.073z"/>
	<path d="M265.915,40.168v-8.786h1.282v8.786H265.915z"/>
	<path d="M273.986,40.334c-2.623,0-4.569-2.147-4.569-4.558c0-2.386,1.886-4.561,4.569-4.561c2.612,0,4.572,2.079,4.572,4.584
		C278.558,38.198,276.598,40.334,273.986,40.334z M273.986,32.391c-2.269,0-3.287,1.984-3.287,3.386
		c0,1.437,1.032,3.383,3.287,3.383c2.269,0,3.29-1.971,3.29-3.348C277.276,34.255,276.172,32.391,273.986,32.391z"/>
	<path d="M286.435,40.168l-4.344-6.791h-0.022v6.791h-1.284v-8.786h1.402l4.271,6.686h0.025v-6.686h1.282v8.786H286.435z"/>
</g>
<g>
	<path d="M0.463,3.954h3.139L11.1,22.79l7.467-18.836h3.139v21.67h-2.042V6.485l-7.619,19.14h-1.92l-7.62-19.14v19.14H0.463V3.954z"
		/>
	<path d="M26.606,25.624l8.411-21.67h2.561l8.38,21.67h-2.285l-2.59-6.797h-9.631l-2.591,6.797H26.606z M36.236,5.997l-4.053,10.88
		h8.167L36.236,5.997z"/>
	<path d="M53.238,25.624h-2.103V3.954h5.821c2.042,0,3.688,0.184,5.211,1.25c1.737,1.22,2.804,3.383,2.804,5.639
		c0,3.292-2.194,6.095-5.242,6.309l5.242,8.473h-2.53l-6.431-10.454h2.042c2.804,0,4.632-1.829,4.632-4.298
		c0-1.523-0.518-2.773-1.554-3.718c-1.188-1.066-2.712-1.066-4.754-1.066h-3.139V25.624z"/>
	<path d="M74.322,25.624H72.22V3.954h2.103v12.039L84.35,3.954h2.529l-8.747,10.485l8.594,11.185h-2.621l-7.344-9.6l-2.439,2.925
		V25.624z"/>
	<path d="M103.728,13.677v2.133h-9.113v7.71h9.113v2.104H92.482V3.954h11.246v2.134h-9.113v7.588H103.728z"/>
	<path d="M114.147,25.624V6.089h-4.329V3.954h10.789v2.134h-4.327v19.536H114.147z"/>
	<path d="M126.639,25.624V3.954h2.133v21.67H126.639z"/>
	<path d="M150.804,3.954h2.103v21.67h-2.56L138.461,6.515l0.244,19.109h-2.104V3.954h2.56l11.886,19.079L150.804,3.954z"/>
	<path d="M181.885,15.231c-0.365,6.401-5.12,10.82-11.123,10.82c-6.218,0-11.002-4.908-11.002-11.398
		c0-3.018,1.157-5.792,3.383-7.985c2.132-2.102,4.692-3.139,7.893-3.139c4.236,0,7.68,2.134,9.691,5.882h-2.621
		c-2.012-2.56-4.266-3.81-7.193-3.81c-5.15,0-8.898,4.267-8.898,9.082c0,5.395,3.961,9.326,8.93,9.326
		c3.869,0,7.435-2.712,8.411-6.857h-10.941v-1.92H181.885z"/>
	<path d="M192.514,18.492c0,0.091,0,0.152,0,0.244c0,1.768,0.671,2.622,1.982,2.622c1.279,0,2.041-0.67,2.041-1.799
		c0-1.98-1.493-2.133-3.87-3.199c-3.23-1.463-4.877-3.566-4.877-6.187c0-3.871,2.987-6.645,7.377-6.645c3.9,0,6.583,2.5,6.583,6.37
		c0,0.122,0,0.213,0,0.335h-4.877c0-1.341-0.732-2.103-1.981-2.103c-0.976,0-1.676,0.671-1.676,1.615
		c0,1.615,1.585,1.951,4.358,3.383c2.955,1.524,4.389,3.443,4.389,6.035c0,3.779-3.109,6.888-7.132,6.888
		c-4.815,0-7.376-2.438-7.376-7.071c0-0.153,0-0.335,0-0.488H192.514z"/>
	<path d="M211.01,25.624V8.984h-4.023v-5.03h13.44v5.03h-4.114v16.64H211.01z"/>
	<path d="M228.286,6.728c2.133-2.103,4.814-3.169,7.893-3.169c2.896,0,5.638,1.127,7.741,3.2c2.195,2.164,3.354,4.938,3.354,7.894
		c0,3.108-1.099,5.882-3.141,7.985c-2.103,2.194-4.966,3.383-7.984,3.383c-3.2,0-5.942-1.158-8.077-3.414
		c-2.041-2.164-3.078-4.846-3.078-8.045C224.993,11.574,226.152,8.831,228.286,6.728z M236.148,20.656
		c3.108,0,5.638-2.499,5.638-6.034c0-3.169-2.529-5.699-5.577-5.699c-3.23,0-5.761,2.53-5.761,5.699
		C230.448,18.036,233.161,20.656,236.148,20.656z"/>
	<path d="M253.727,25.624V3.954h7.193c2.284,0,4.023,0.153,5.485,1.19c1.921,1.34,2.925,3.382,2.925,6.064
		c0,3.504-1.827,6.125-4.904,6.979l5.302,7.437h-6.553l-4.145-6.979v6.979H253.727z M260.067,13.951c2.62,0,3.901-0.671,3.901-2.622
		c0-1.797-1.129-2.528-3.476-2.528h-1.462v5.15H260.067z"/>
	<path d="M276.001,25.624V3.954h11.763V8.74h-6.46v3.505h6.46v4.815h-6.46v3.779h6.46v4.785H276.001z"/>
</g>
</svg>
